<svg xmlns="http://www.w3.org/2000/svg" version="1.0" viewBox="0 0 1024 1024" fill="#549801"><path d="M311.5 115c-12.3 1-20.5 2.8-21.2 4.7-1.6 4.1 5.8 31.6 12.8 47.4 6.9 15.8 14.9 28.3 27.4 43 8.6 10.1 16.3 16.8 29 25.2 18.7 12.4 37.1 19.5 78.5 30.6 10.2 2.7 22.8 6.5 28 8.4 5.2 2 9.7 3.4 10 3.1s.5-9.9.5-21.2c0-16-.5-22.6-1.8-29.2-2.6-12.1-7.9-27.4-13-37.6-21.1-41.9-64.5-68.8-119.6-74.4-11.3-1.1-16.9-1.1-30.6 0m55.2 36.5c27.2 8.2 47.1 21.5 62.5 41.9 8.3 11.1 10.4 15.8 8.9 20.7-2 6.7-9 10.6-14.1 7.9-1-.5-5.6-5.6-10.3-11.3-15.9-19.3-31-29.7-54.5-37.6-12.1-4-14.9-5.5-16.7-9.1-2.5-4.9-1.9-8.8 1.9-12.6 4.4-4.4 7.1-4.4 22.3.1" fill="#549801"/><path d="M502.4 115.5c-7 1.5-10.9 3.3-17.5 8.1-4.1 3-12.9 13.2-12.9 14.9 0 .4 2 5.7 4.4 11.8 7.7 19.5 13.8 42.8 18.3 69.2 2.6 15.5 2.7 17.4 3 65.9.4 41.1.2 49.7-.9 49-.7-.4-4.7-3.1-8.8-5.9-20.9-14.4-51-30.4-71.4-37.9-24-8.8-41.5-11.9-66.6-11.9-23.2 0-40 2.7-63 10.3-61 20-117.8 79.5-146 153-8.3 21.7-15.9 52-19.2 77-2.2 16-1.6 63.9 1 85 9 74.3 43.1 147.8 95.8 207.1 19.2 21.6 47.6 45 73.9 60.9 45.6 27.7 86.2 39.6 123 36.1 13.8-1.4 27-4.5 50-12.1 25.2-8.3 32.9-10 45.6-10 14 0 23.2 1.9 45.2 9.1 30.2 9.9 46 12.9 67.8 12.9 26.5 0 50.3-6.1 81.4-20.9 52.9-25.2 99.3-66.8 136.2-122.1 26.8-40.2 46.4-87.2 56.2-135 5.7-28 6.6-37.7 6.6-71 0-35.6-1.6-49.4-9-78.5-11.6-45.1-29.1-81.2-55.8-114.8-10.9-13.7-33.9-36.6-46.2-45.9-14.9-11.2-32.1-21.7-43-26.2-5.1-2.2-4.2-1.4 8.5 7.2 37.5 25.3 60.7 52.7 72 84.7 3.2 9.2 7 28.7 6.9 35.3v3.7L836 420c-3.2-7.9-12-23.2-19.9-34.7-10.2-14.9-23.9-30.3-37-41.6-11.4-9.8-30.7-23.5-31.7-22.5-.3.3.6 4.1 1.9 8.5 4 12.8 5.2 21.6 5.2 39.3-.1 19.2-1.5 30.4-6 48.6-7.7 30.3-21.6 56.4-43.3 81.4-39.1 45-91.9 74-171.7 94.5-54.6 14-88.8 28.7-114.6 49.2-31.5 25.1-50.2 52.6-61.3 90.3-3.7 12.6-5 23.5-4.9 43 0 14.1.4 19.5 2.2 27.7 4.2 20.1 12.1 37.2 25.1 54.4 14.8 19.8 29.4 30.1 51.6 36.3 15.1 4.3 15 4.2 3.5 5.6-17.5 2.1-30.7.1-42.8-6.6-19-10.6-36.6-28.9-44.8-46.7-2.1-4.7-3.7-6.3-10.4-11.1C304.3 812.7 270 772.8 247 731c-21.4-38.7-38.5-89.2-43.2-127-2-15.9-1.6-60.3.6-76.5 2.2-16.1 9-43.4 14.5-58 7.8-20.5 22.6-45.5 37.7-63.5 16.5-19.7 42.1-39.3 68.5-52.5 11.6-5.9 29.9-13.1 38.6-15.2 5.9-1.5 6.3-1.8 4.2-2.7-4.1-1.7-33.3-1.3-43.9.7-26.6 5-53.3 18.5-75.1 38-35 31.3-61.4 82.8-70.8 137.7-3.6 21.5-4.4 33.8-3.8 63.4.8 41.7 4.2 62.2 16.8 101.3 2.1 6.8 4.8 14.6 5.9 17.3 1.1 2.8 2 5.3 2 5.5 0 1.3-6.5.3-9.9-1.5-5.5-2.8-9.5-8-15.1-19.5-11.8-24.5-21-59.6-23.9-91.5-4.7-50.8 5.3-108.3 26.9-154.5 7.1-15.1 14.1-26.7 25-41.5 41.5-56 93.8-84.2 152-81.7 32 1.4 58 10.5 100 35.3 29 17.1 40.6 21.4 57.1 21.4 16.3 0 25.3-2.8 53.9-16.8 20.3-9.9 33.4-15.1 46.8-18.5 7.5-1.9 11.3-2.2 27.2-2.2 20.9.1 29.5 1.6 44.1 7.9 16.5 7.2 36.4 23.2 44.4 35.9 1.7 2.6 3.3 4.7 3.7 4.7 1.1 0 2.1-17 1.4-25.9-2.5-32.1-17.4-57.1-40.4-68-8.7-4-18.2-5.5-31.7-4.8-32.8 1.7-72.7 17.5-117.5 46.6-6.9 4.5-13.3 8.6-14.2 9.1-1.7 1-1.8 0-1.9-15.7-.3-41.5.3-69.7 1.7-82.3 3.1-28.8 13.3-70.2 22.8-92.2.9-2.1 1.6-4.4 1.6-5.3 0-.8-3.1-4.8-7-8.8-8-8.5-16.2-13-26.2-14.7-7.8-1.2-9.7-1.2-17.4.5" fill="#549801"/><path d="M658 155.1c-36.5 4.1-70.6 22.2-90.1 47.8-6.6 8.7-14.2 24.5-16.9 35.1-2.5 9.7-4 38.3-1.8 32.5 3.1-7.7 11-22.1 16.4-29.6 19.2-26.9 50.6-47.2 84.9-55 13.1-2.9 35.8-3.2 48.4-.5 4.6 1 8.7 1.4 9.1.9.4-.4 4.7-5.5 9.5-11.2 6.7-7.9 8.4-10.5 7.4-11.2-3-1.9-16.9-5.9-25.4-7.4-11.4-2-30.5-2.7-41.5-1.4" fill="#549801" /><path d="M662 208.7c-15.7 1.7-38.2 10.6-52.7 20.9-9.1 6.5-22.1 19.7-28.1 28.7-5.3 8.1-6.1 9.9-3.9 9.2.6-.2 9.6-2.4 19.8-4.9 30.5-7.5 46.1-13.7 63.9-25.4 8.2-5.5 29-24.7 29-26.9 0-2-15.8-2.9-28-1.6M298.2 401.3c-4.3 1.5-11.1 7.3-18.5 15.7-23.9 26.9-41.1 65.3-48.8 108.5-2.7 15.3-3.7 50.5-2 69.2 5.4 58.1 29.4 116.9 68.7 168.4 6.9 9 30.8 34.9 32.2 34.9.4 0 .7-8.9.6-19.8l-.1-19.9-7.4-8.7c-31.5-37.2-56.3-91.5-63.4-139.1-3.7-25-3.7-61.5 0-83 6.5-37.2 22.1-72.2 43.2-96.8 12.6-14.7 12.6-14.7 12-19.5-.5-4.9-2.8-7.9-7.4-9.8-3.8-1.7-4.8-1.7-9.1-.1" fill="#549801"/><path d="M291.3 525c-7.1 4.3-8.7 13-8.7 46 0 25.7 1.4 38.5 6.4 58 7.8 30.6 26.5 70 42.7 89.7 1.9 2.3 3.8 4.3 4.2 4.3s1.4-2.8 2.4-6.3c.9-3.5 3.4-10.5 5.5-15.6l3.9-9.3-5.2-7.8c-12.4-18.9-22.6-44.9-28-71.5-3.7-18.5-4.8-33.4-4.2-57.5.6-23.6.2-25.9-4.8-29.8-3.5-2.8-9.9-2.9-14.2-.2"/></svg>