<svg width="316" height="90" viewBox="0 0 316 90" fill="none" xmlns="http://www.w3.org/2000/svg">
<g clip-path="url(#clip0_104_12812)">
<path d="M315.554 64.4702C315.554 66.4711 315.176 68.312 314.42 69.9928C313.852 71.3 313.123 72.5006 312.231 73.5944C311.286 74.6616 310.245 75.5821 309.111 76.3557C308.003 77.0761 306.774 77.6497 305.423 78.0766C304.694 78.29 303.978 78.4367 303.275 78.5168C302.573 78.6235 301.857 78.6768 301.127 78.6768C299.128 78.6768 297.251 78.3033 295.495 77.5563C293.738 76.7826 292.226 75.7688 290.956 74.5149C289.659 73.261 288.632 71.7536 287.876 69.9928C287.119 68.2853 286.741 66.4311 286.741 64.4302L286.944 42.4999L292.86 42.4598L292.901 64.4302C292.901 64.9904 292.955 65.524 293.063 66.0309C293.171 66.5378 293.333 67.0581 293.549 67.5916C293.765 68.0719 294.022 68.5254 294.319 68.9523C294.644 69.3791 294.995 69.7793 295.373 70.1528C296.075 70.8732 296.953 71.4468 298.007 71.8736C298.547 72.0871 299.074 72.2472 299.588 72.3539C300.128 72.4339 300.695 72.4739 301.29 72.4739C302.478 72.4739 303.545 72.2605 304.491 71.8336C305.491 71.4334 306.369 70.8465 307.125 70.0728C307.936 69.2724 308.543 68.392 308.949 67.4316C309.408 66.3911 309.638 65.3239 309.638 64.2301L309.597 42.6199L316 42.6599L315.757 64.2301L315.554 64.4702Z" fill="#549801"/>
<path d="M262.083 65.3505C262.056 66.5778 262.043 67.6983 262.043 68.7121C262.07 69.7259 262.083 70.7264 262.083 71.7135C262.11 72.674 262.124 73.6611 262.124 74.6749C262.151 75.6887 262.164 76.8092 262.164 78.0365H256.085V42.6199H270.229C271.741 42.6199 273.092 42.8867 274.281 43.4202C274.902 43.7137 275.497 44.0472 276.064 44.4207C276.631 44.7675 277.158 45.1944 277.645 45.7013C278.59 46.6351 279.347 47.7289 279.914 48.9829C280.481 50.2368 280.765 51.5174 280.765 52.8247C280.765 53.2515 280.724 53.7584 280.643 54.3454C280.589 54.9323 280.481 55.5326 280.319 56.1462C280.184 56.7598 280.008 57.3468 279.792 57.907C279.576 58.4673 279.32 58.9342 279.022 59.3077C278.023 60.5616 276.807 61.5754 275.375 62.3491C273.943 63.1228 272.619 63.7365 271.404 64.19C272.403 66.0575 273.795 68.2452 275.578 70.7531C277.388 73.2609 279.211 75.6887 281.049 78.0365H274.038C273.119 76.8626 272.309 75.7554 271.606 74.7149C270.904 73.6744 270.215 72.6473 269.54 71.6335C268.891 70.6197 268.216 69.5925 267.513 68.552C266.811 67.5116 266 66.391 265.082 65.1905C265.082 65.2171 264.515 65.2705 263.38 65.3505C262.272 65.4039 261.989 65.4573 262.529 65.5106C263.069 65.5373 263.164 65.5506 262.813 65.5506C262.488 65.5506 262.245 65.4839 262.083 65.3505ZM274.605 53.1048C274.605 52.4645 274.497 51.8909 274.281 51.384C274.065 50.8771 273.741 50.4102 273.308 49.9833C272.849 49.5298 272.363 49.1963 271.85 48.9829C271.552 48.8761 271.269 48.7961 270.999 48.7427C270.728 48.6627 270.445 48.6227 270.147 48.6227H262.083L262.164 58.1071H270.229C270.823 58.1071 271.39 57.9871 271.931 57.747C272.498 57.5069 272.984 57.1867 273.389 56.7865C273.822 56.3063 274.146 55.8394 274.362 55.3859C274.497 55.1458 274.578 54.7589 274.605 54.2253C274.632 53.6917 274.646 53.2782 274.646 52.9847L274.605 53.1048Z" fill="#549801"/>
<path d="M249.268 64.4702C249.268 66.4711 248.89 68.312 248.133 69.9928C247.566 71.3 246.837 72.5006 245.945 73.5944C244.999 74.6616 243.959 75.5821 242.825 76.3557C241.717 77.0761 240.488 77.6497 239.137 78.0766C238.407 78.29 237.692 78.4367 236.989 78.5168C236.287 78.6235 235.571 78.6768 234.841 78.6768C232.842 78.6768 230.964 78.3033 229.208 77.5563C227.452 76.7826 225.939 75.7688 224.67 74.5149C223.373 73.261 222.346 71.7536 221.59 69.9928C220.833 68.2853 220.455 66.4311 220.455 64.4302L220.658 42.4999L226.574 42.4598L226.615 64.4302C226.615 64.9904 226.669 65.524 226.777 66.0309C226.885 66.5378 227.047 67.0581 227.263 67.5916C227.479 68.0719 227.736 68.5254 228.033 68.9523C228.357 69.3791 228.709 69.7793 229.087 70.1528C229.789 70.8732 230.667 71.4468 231.721 71.8736C232.261 72.0871 232.788 72.2472 233.301 72.3539C233.842 72.4339 234.409 72.4739 235.003 72.4739C236.192 72.4739 237.259 72.2605 238.205 71.8336C239.204 71.4334 240.082 70.8465 240.839 70.0728C241.649 69.2724 242.257 68.392 242.663 67.4316C243.122 66.3911 243.351 65.3239 243.351 64.2301L243.311 42.6199L249.714 42.6599L249.471 64.2301L249.268 64.4702Z" fill="#549801"/>
<path d="M214.748 73.3143C213.857 74.1414 212.925 74.8751 211.952 75.5154C210.98 76.129 209.939 76.6626 208.832 77.1161C206.643 77.9965 204.334 78.4367 201.902 78.4367C199.336 78.4367 196.945 77.9699 194.729 77.0361C192.541 76.1023 190.582 74.795 188.853 73.1142C187.232 71.5135 185.922 69.5793 184.922 67.3115C183.95 65.1238 183.463 62.7627 183.463 60.2282C183.463 57.7204 183.95 55.3592 184.922 53.1449C185.922 50.8771 187.232 48.9429 188.853 47.3422C190.582 45.6614 192.541 44.3541 194.729 43.4203C196.945 42.4865 199.336 42.0197 201.902 42.0197C204.361 42.0197 206.684 42.4599 208.872 43.3403C209.115 43.4737 209.359 43.5937 209.602 43.7004C209.872 43.8072 210.142 43.9272 210.412 44.0606L207.697 48.7028L207.17 49.223L206.522 48.9429C205.063 48.356 203.523 48.0625 201.902 48.0625C200.173 48.0625 198.579 48.396 197.12 49.063C195.607 49.7033 194.297 50.5703 193.189 51.6642C192.055 52.8114 191.177 54.1053 190.555 55.546C189.907 56.9867 189.583 58.5474 189.583 60.2282C189.583 61.8823 189.907 63.443 190.555 64.9104C191.177 66.3511 192.055 67.645 193.189 68.7922C194.351 69.9127 195.661 70.7798 197.12 71.3934C198.579 72.0604 200.173 72.3939 201.902 72.3939C203.172 72.3939 204.455 72.2072 205.752 71.8336C206.995 71.4868 208.156 70.8999 209.237 70.0728V63.3096H202.429L205.914 57.3468H214.87V73.0742L214.748 73.3143Z" fill="#549801"/>
<path d="M129.295 67.6317C129.295 69.0723 128.997 70.4063 128.403 71.6335C127.863 72.8875 127.106 74.008 126.134 74.9951C125.134 75.9822 124.013 76.7293 122.77 77.2362C121.473 77.7964 120.109 78.0766 118.677 78.0766H104.534L103.764 77.3562V43.3403L104.656 42.4598H116.124C117.529 42.4598 118.88 42.7266 120.177 43.2602C121.473 43.8205 122.608 44.5808 123.581 45.5413C124.526 46.5017 125.283 47.6223 125.85 48.9029C126.417 50.1568 126.701 51.4907 126.701 52.9047C126.701 53.9986 126.512 55.0791 126.134 56.1463C125.783 57.1601 125.269 58.1339 124.594 59.0676C125.323 59.5479 125.958 60.1081 126.498 60.7484C127.066 61.362 127.566 62.0424 127.998 62.7894C128.862 64.2034 129.295 65.8175 129.295 67.6317ZM122.973 67.3515C122.946 67.0047 122.905 66.6845 122.851 66.3911C122.824 66.0709 122.743 65.7508 122.608 65.4306C122.365 64.8437 122.041 64.3234 121.636 63.8699C121.419 63.6031 121.19 63.3897 120.947 63.2296C120.73 63.0428 120.474 62.8828 120.177 62.7494C119.636 62.4826 119.069 62.3492 118.475 62.3492H109.681L109.762 72.1538H118.515C119.109 72.1538 119.677 72.007 120.217 71.7136C120.514 71.5802 120.771 71.4334 120.987 71.2734C121.23 71.1133 121.46 70.8999 121.676 70.6331C122.108 70.1262 122.432 69.6193 122.649 69.1123C122.892 68.5521 123.013 67.9385 123.013 67.2715L122.973 67.3515ZM121.919 53.465C121.919 52.8247 121.798 52.1977 121.554 51.5841C121.284 50.9972 120.906 50.4903 120.42 50.0634C120.177 49.8233 119.92 49.6232 119.65 49.4631C119.407 49.2764 119.123 49.1163 118.799 48.9829C118.177 48.7161 117.516 48.5827 116.813 48.5827H109.802V58.1072H116.813C117.516 58.1072 118.177 57.9738 118.799 57.707C119.123 57.5736 119.407 57.4269 119.65 57.2668C119.92 57.08 120.177 56.8666 120.42 56.6265C120.879 56.1996 121.257 55.7061 121.554 55.1458C121.825 54.5589 121.96 53.9719 121.96 53.385L121.919 53.465Z" fill="#E78B01"/>
<path d="M97.0679 64.4702C97.0679 66.4711 96.6896 68.312 95.9332 69.9928C95.3658 71.3 94.6364 72.5006 93.7449 73.5944C92.7993 74.6616 91.7592 75.5821 90.6245 76.3557C89.5168 77.0761 88.2875 77.6497 86.9367 78.0766C86.2073 78.29 85.4913 78.4367 84.7889 78.5168C84.0865 78.6235 83.3706 78.6768 82.6411 78.6768C80.6419 78.6768 78.7643 78.3033 77.0082 77.5563C75.2521 76.7826 73.7392 75.7688 72.4694 74.5149C71.1727 73.261 70.146 71.7536 69.3896 69.9928C68.6331 68.2853 68.2549 66.4311 68.2549 64.4302L68.4575 42.4999L74.3741 42.4598L74.4146 64.4302C74.4146 64.9904 74.4687 65.524 74.5767 66.0309C74.6848 66.5378 74.8469 67.0581 75.063 67.5916C75.2791 68.0719 75.5358 68.5254 75.833 68.9523C76.1572 69.3791 76.5084 69.7793 76.8866 70.1528C77.5891 70.8732 78.4671 71.4468 79.5207 71.8736C80.0611 72.0871 80.5879 72.2472 81.1012 72.3539C81.6415 72.4339 82.2089 72.4739 82.8032 72.4739C83.9919 72.4739 85.0591 72.2605 86.0047 71.8336C87.0043 71.4334 87.8823 70.8465 88.6388 70.0728C89.4493 69.2724 90.0571 68.392 90.4624 67.4316C90.9216 66.3911 91.1513 65.3239 91.1513 64.2301L91.1108 42.6199L97.5137 42.6599L97.2705 64.2301L97.0679 64.4702Z" fill="#E78B01"/>
<path d="M43.5968 65.3505C43.5697 66.5778 43.5562 67.6983 43.5562 68.7121C43.5833 69.7259 43.5968 70.7264 43.5968 71.7135C43.6238 72.674 43.6373 73.6611 43.6373 74.6749C43.6643 75.6887 43.6778 76.8092 43.6778 78.0365H37.5991V42.6199H51.7422C53.2551 42.6199 54.6059 42.8867 55.7947 43.4202C56.416 43.7137 57.0104 44.0472 57.5777 44.4207C58.1451 44.7675 58.6719 45.1944 59.1582 45.7013C60.1038 46.6351 60.8602 47.7289 61.4276 48.9829C61.9949 50.2368 62.2786 51.5174 62.2786 52.8247C62.2786 53.2515 62.2381 53.7584 62.157 54.3454C62.103 54.9323 61.9949 55.5326 61.8328 56.1462C61.6978 56.7598 61.5221 57.3468 61.306 57.907C61.0899 58.4673 60.8332 58.9342 60.5361 59.3077C59.5364 60.5616 58.3207 61.5754 56.8888 62.3491C55.457 63.1228 54.1332 63.7365 52.9174 64.19C53.917 66.0575 55.3084 68.2452 57.0915 70.7531C58.9016 73.2609 60.7252 75.6887 62.5623 78.0365H55.5515C54.633 76.8626 53.8225 75.7554 53.12 74.7149C52.4176 73.6744 51.7287 72.6473 51.0533 71.6335C50.4049 70.6197 49.7295 69.5925 49.0271 68.552C48.3246 67.5116 47.5141 66.391 46.5956 65.1905C46.5956 65.2171 46.0282 65.2705 44.8936 65.3505C43.7859 65.4039 43.5022 65.4573 44.0425 65.5106C44.5829 65.5373 44.6774 65.5506 44.3262 65.5506C44.002 65.5506 43.7589 65.4839 43.5968 65.3505ZM56.1189 53.1048C56.1189 52.4645 56.0108 51.8909 55.7947 51.384C55.5785 50.8771 55.2543 50.4102 54.8221 49.9833C54.3628 49.5298 53.8765 49.1963 53.3632 48.9829C53.066 48.8761 52.7823 48.7961 52.5122 48.7427C52.242 48.6627 51.9583 48.6227 51.6612 48.6227H43.5968L43.6778 58.1071H51.7422C52.3366 58.1071 52.9039 57.9871 53.4442 57.747C54.0116 57.5069 54.4979 57.1867 54.9031 56.7865C55.3354 56.3063 55.6596 55.8394 55.8757 55.3859C56.0108 55.1458 56.0918 54.7589 56.1189 54.2253C56.1459 53.6917 56.1594 53.2782 56.1594 52.9847L56.1189 53.1048Z" fill="#E78B01"/>
<path d="M31.285 73.3143C30.3935 74.1414 29.4614 74.8751 28.4888 75.5154C27.5162 76.129 26.4761 76.6626 25.3684 77.1161C23.1801 77.9965 20.8702 78.4367 18.4387 78.4367C15.8721 78.4367 13.4812 77.9699 11.2658 77.0361C9.07752 76.1023 7.11883 74.795 5.38978 73.1142C3.76879 71.5135 2.45849 69.5793 1.45889 67.3115C0.486296 65.1238 0 62.7627 0 60.2282C0 57.7204 0.486296 55.3592 1.45889 53.1449C2.45849 50.8771 3.76879 48.9429 5.38978 47.3422C7.11883 45.6614 9.07752 44.3541 11.2658 43.4203C13.4812 42.4865 15.8721 42.0197 18.4387 42.0197C20.8972 42.0197 23.2206 42.4599 25.4089 43.3403C25.6521 43.4737 25.8952 43.5937 26.1384 43.7004C26.4085 43.8072 26.6787 43.9272 26.9489 44.0606L24.2337 48.7028L23.7069 49.223L23.0585 48.9429C21.5996 48.356 20.0597 48.0625 18.4387 48.0625C16.7097 48.0625 15.1157 48.396 13.6568 49.063C12.1439 49.7033 10.8336 50.5703 9.72591 51.6642C8.59122 52.8114 7.71319 54.1053 7.09181 55.546C6.44342 56.9867 6.11922 58.5474 6.11922 60.2282C6.11922 61.8823 6.44342 63.443 7.09181 64.9104C7.71319 66.3511 8.59122 67.645 9.72591 68.7922C10.8876 69.9127 12.1979 70.7798 13.6568 71.3934C15.1157 72.0604 16.7097 72.3939 18.4387 72.3939C19.7085 72.3939 20.9918 72.2072 22.2885 71.8336C23.5313 71.4868 24.693 70.8999 25.7737 70.0728V63.3096H18.9655L22.4506 57.3468H31.4066V73.0742L31.285 73.3143Z" fill="#E78B01"/>
<path fill-rule="evenodd" clip-rule="evenodd" d="M157.923 8.77605C161.716 3.32037 167.919 -0.617514 177.267 0.0801273C178.524 0.173903 179.466 1.26859 179.372 2.52518C179.279 3.78177 178.184 4.72442 176.927 4.63065C169.291 4.06074 164.6 7.16559 161.67 11.3807C158.64 15.7393 157.431 21.4122 157.289 25.7598L152.739 25.9182C152.339 22.0168 150.05 19.8914 147.035 18.9169C143.873 17.8949 140.01 18.2132 137.171 19.4142C136.011 19.9052 134.672 19.3624 134.181 18.2019C133.69 17.0414 134.233 15.7026 135.393 15.2117C139.146 13.6241 144.139 13.1852 148.438 14.5749C149.212 14.8248 149.965 15.1357 150.684 15.5103C150.33 14.4916 149.92 13.5151 149.446 12.5901C147.554 8.90136 144.609 5.99649 139.692 4.54366C138.483 4.18662 137.793 2.91754 138.15 1.7091C138.507 0.500656 139.776 -0.189543 140.985 0.167498C147.222 2.01029 151.105 5.82691 153.506 10.5075C154.113 11.6904 154.624 12.9255 155.056 14.1933C155.796 12.3193 156.738 10.4801 157.923 8.77605Z" fill="#549801"/>
<path d="M165.589 63.8188C167.714 52.9365 169 41.9529 169 38.1605C169 37.9223 168.995 37.6855 168.985 37.45H161.003C159.915 37.45 159.034 36.4285 159.034 35.1685C159.034 33.9084 159.915 32.8869 161.003 32.8869H168.13C166.152 27.1138 161.019 23 155 23C147.268 23 141 29.7876 141 38.1605C141 39.9178 141.276 43.2193 141.784 47.3393C141.814 47.3377 141.844 47.3369 141.875 47.3369H151.811C152.899 47.3369 153.78 48.3584 153.78 49.6185C153.78 50.8786 152.899 51.9001 151.811 51.9001H142.395C144.662 67.6227 149.455 89.9587 155 89.9587C158.738 89.9587 162.134 79.8095 164.645 68.3782H155.289C154.202 68.3782 153.32 67.3567 153.32 66.0966C153.32 64.8365 154.202 63.815 155.289 63.815H165.474C165.513 63.815 165.551 63.8163 165.589 63.8188Z" fill="#E78B01"/>
</g>
<defs>
<clipPath id="clip0_104_12812">
<rect width="316" height="90" fill="white"/>
</clipPath>
</defs>
</svg>
