<svg width="46" height="90" viewBox="0 0 46 90" fill="none" xmlns="http://www.w3.org/2000/svg">
<path fill-rule="evenodd" clip-rule="evenodd" d="M23.9231 8.77605C27.7156 3.32037 33.9186 -0.617514 43.267 0.0801273C44.5236 0.173903 45.4662 1.26859 45.3725 2.52518C45.2787 3.78177 44.184 4.72442 42.9274 4.63065C35.2907 4.06074 30.6 7.16559 27.6699 11.3807C24.6399 15.7393 23.4306 21.4122 23.2888 25.7598L18.7388 25.9182C18.3386 22.0168 16.0502 19.8914 13.0351 18.9169C9.8729 17.8949 6.00992 18.2132 3.17117 19.4142C2.01068 19.9052 0.671889 19.3624 0.18091 18.2019C-0.31007 17.0414 0.232682 15.7026 1.39318 15.2117C5.14568 13.6241 10.1388 13.1852 14.4384 14.5749C15.2116 14.8248 15.9646 15.1357 16.6843 15.5103C16.3295 14.4916 15.9204 13.5151 15.4459 12.5901C13.5538 8.90136 10.6091 5.99649 5.69185 4.54366C4.48341 4.18662 3.79321 2.91754 4.15025 1.7091C4.50729 0.500656 5.77636 -0.189543 6.98481 0.167498C13.222 2.01029 17.1053 5.82691 19.5061 10.5075C20.1129 11.6904 20.6236 12.9255 21.0563 14.1933C21.7957 12.3193 22.7385 10.4801 23.9231 8.77605Z" fill="#549801"/>
<path d="M31.5887 63.8188C33.7141 52.9365 35 41.9529 35 38.1605C35 37.9223 34.9949 37.6855 34.9849 37.45H27.0026C25.9153 37.45 25.0339 36.4285 25.0339 35.1685C25.0339 33.9084 25.9153 32.8869 27.0026 32.8869H34.1297C32.1516 27.1138 27.0195 23 21 23C13.268 23 7 29.7876 7 38.1605C7 39.9178 7.27612 43.2193 7.78394 47.3393C7.81412 47.3377 7.84448 47.3369 7.875 47.3369H17.8114C18.8988 47.3369 19.7802 48.3584 19.7802 49.6185C19.7802 50.8786 18.8988 51.9001 17.8114 51.9001H8.39535C10.6625 67.6227 15.4547 89.9587 21 89.9587C24.738 89.9587 28.1338 79.8095 30.6446 68.3782H21.2892C20.2019 68.3782 19.3204 67.3567 19.3204 66.0966C19.3204 64.8365 20.2019 63.815 21.2892 63.815H31.474C31.5125 63.815 31.5507 63.8163 31.5887 63.8188Z" fill="#E78B01"/>
</svg>
