<svg width="418" height="710" viewBox="0 0 418 710" fill="none" xmlns="http://www.w3.org/2000/svg">
<g opacity="0.05" clip-path="url(#clip0_104_8618)">
<path d="M385.383 566.004C383.845 564.909 382.175 563.978 380.381 563.244C379.989 563.085 379.738 562.714 379.742 562.297C379.755 557.799 378.847 553.053 378.017 548.696C377.697 547.016 377.032 545.227 375.362 544.458C373.389 543.551 371.293 544.701 369.784 545.94C366.789 548.4 363.853 550.973 361.007 553.603C358.399 556.009 355.502 558.598 353.729 561.734C353.623 561.922 353.359 561.919 353.256 561.729C352.374 560.065 351.284 558.538 350.031 557.146C349.907 557.01 349.907 556.805 350.031 556.67C356.759 549.294 363.785 542.183 370.377 534.686C373.887 530.694 377.369 526.679 380.747 522.576C384.084 518.528 387.117 514.176 390.194 509.929C391.681 507.88 393.155 505.824 394.604 503.752C395.92 501.872 397.092 499.658 398.69 498.009C399.955 496.7 402.444 495.959 403.236 498.114C403.705 499.38 403.279 500.962 402.899 502.218C402.124 504.806 400.607 507.113 398.937 509.211C395.729 513.231 391.825 516.621 388.727 520.744C385.749 524.709 383.244 529.051 381.901 533.843C378.974 544.262 381.914 555.706 385.758 565.712C385.847 565.942 385.583 566.147 385.383 566.004L385.383 566.004ZM354.62 564.901C354.462 564.437 354.291 563.982 354.108 563.535C354.027 563.342 354.07 563.121 354.223 562.976C355.8 561.464 364.325 552.923 369.09 549.058C370.355 548.028 371.978 546.23 373.7 546.235C376.077 546.241 376.188 549.992 376.495 551.683C377.139 555.251 377.496 558.894 378.174 562.456C370.393 560.068 361.786 561.143 354.62 564.902V564.901ZM348.071 569.474C343.75 573.421 340.554 578.767 339.506 584.535C338.705 588.935 338.995 593.617 340.022 598.059C340.086 598.33 339.983 598.608 339.757 598.772C339.072 599.273 337.755 600.411 337.218 600.856C336.455 601.484 335.394 602.137 334.648 602.945C334.461 603.147 334.15 603.152 333.958 602.956C329.97 598.869 324.789 595.995 318.883 595.107C312.96 594.216 306.982 595.566 302.163 598.641C302.159 598.634 302.154 598.627 302.15 598.62C293.223 587.432 291.025 570.087 300.476 558.496C305.111 552.814 311.652 549.564 318.959 548.959C325.709 548.4 332.654 549.547 338.845 552.284C345.169 555.079 350.247 559.516 353.251 565.659C351.398 566.75 349.655 568.025 348.07 569.474L348.071 569.474ZM351.514 616.628C356.444 620.021 362.396 621.333 368.306 621.579C368.149 625.517 367.492 629.068 365.6 632.666C363.875 635.944 361.16 638.63 357.939 640.458C350.806 644.501 342.054 643.319 334.892 639.982C337.175 638.18 339.123 635.965 340.414 633.398C343.056 628.139 342.932 621.873 341.471 616.292C340.375 612.119 338.398 608.237 335.736 604.951C336.988 604.65 338.237 603.755 339.17 603.1C339.77 602.677 340.482 602.227 341.04 601.69C341.219 602.235 341.407 602.776 341.607 603.308C343.584 608.568 346.827 613.404 351.514 616.628H351.514ZM354.658 654.753C353.993 658.472 352.77 662.269 350.274 665.18C343.984 672.507 333.895 672.176 325.096 671.414C327.397 665.816 328.095 659.413 326.621 653.882C325.731 650.554 323.877 647.496 321.248 645.312C323.673 645.111 326.08 644.58 328.381 643.686C330.265 642.955 332.11 641.981 333.81 640.792C339.749 644.805 347.521 646.317 354.48 644.538C354.914 647.95 355.268 651.308 354.658 654.753H354.658ZM311.533 681.94C306.219 683.649 300.749 682.143 295.452 681.202C295.435 681.199 295.418 681.2 295.401 681.198C295.107 675.575 293.058 669.977 289.662 665.277C289.611 665.206 289.551 665.153 289.492 665.112C289.313 664.695 289.121 664.291 288.912 663.905C292.125 660.702 293.595 656.685 295.116 652.491C296.867 647.668 298.363 642.573 298.001 637.388C297.958 636.77 297.886 636.157 297.788 635.547C298.282 636.147 298.806 636.729 299.36 637.286C304.277 642.243 311.09 645.125 318.006 645.386C325.807 652.209 325.607 663.526 321.317 672.351C319.267 676.569 316.165 680.451 311.534 681.94H311.533ZM290.378 692.668C285.942 700.034 277.684 703.592 269.341 701.23C260.397 698.697 254.748 690.41 253.584 681.512C252.383 672.314 255.238 661.814 264.863 658.499C272.477 655.875 282.473 657.091 287.429 663.721C287.471 663.932 287.604 664.114 287.783 664.224C288.051 664.619 288.302 665.033 288.537 665.464C288.49 665.613 288.503 665.786 288.614 665.962C293.475 673.946 295.41 684.309 290.378 692.668ZM245.966 643.21C246.532 635.027 250.896 627.117 257.713 622.457C264.296 617.958 273.116 616.402 280.692 619.211C287.727 621.819 293.164 628.007 294.847 635.274C296.001 640.257 294.851 645.373 293.338 650.149C291.992 654.407 290.624 658.813 288.012 662.496C283.76 656.658 275.216 655.075 268.271 656.105C263.307 656.841 258.577 659.135 255.565 663.232C255.105 663.863 254.687 664.522 254.303 665.2C248.709 659.236 245.394 651.479 245.964 643.211L245.966 643.21ZM243.865 621.85C242.182 618.986 241.078 615.804 240.708 612.503C240.345 609.289 240.584 606.002 241.462 602.888C242.238 600.152 243.589 596.326 246.776 595.679C251.101 599.672 256.486 602.452 262.188 603.463V603.463C261.796 605.222 261.694 607.086 261.856 608.88C262.009 610.574 262.371 612.298 262.938 613.904C263.228 614.734 263.556 615.703 264.059 616.515C262.398 617.05 260.778 617.728 259.236 618.544C254.898 620.842 251.263 624.293 248.605 628.381C247.007 626.218 245.234 624.177 243.867 621.85H243.865ZM241.641 563.458C244.921 555.464 252.153 548.493 260.951 547.079C261.604 554.472 265.038 561.61 271.139 566.408C276.815 570.871 284.174 573.3 291.362 572.454C291.277 573.16 291.209 573.868 291.17 574.58C291.034 577.174 291.239 579.757 291.746 582.277C290.263 588.763 285.287 593.937 279.636 597.23C272.933 601.135 264.254 601.499 257.092 598.617C243.431 593.119 236.004 577.183 241.641 563.457L241.641 563.458ZM293.424 609.139C293.394 609.179 293.364 609.224 293.347 609.277C291.528 613.95 291.199 618.995 292.171 623.785C290.023 621.301 287.394 619.223 284.476 617.751C279.013 614.993 272.737 614.475 266.835 615.764C266.682 615.204 266.43 614.659 266.196 614.09C265.706 612.891 265.267 611.658 264.93 610.406C264.819 609.987 264.197 605.949 264.146 603.74C269.046 604.25 274.104 603.431 278.855 600.938C285.084 597.671 290.547 592.307 292.588 585.56C294.211 590.749 297.13 595.545 301.003 599.428C297.667 601.849 294.991 605.149 293.423 609.139H293.424ZM338.21 613.462C339.902 618.263 340.404 623.759 338.99 628.689C337.623 633.446 334.005 637.15 329.706 639.457C321.691 643.758 310.331 643.264 303.02 637.698C294.634 631.312 291.481 619.603 294.532 609.703C294.545 609.667 294.886 608.351 295.132 607.865C298.874 600.541 306.603 595.889 314.984 596.071C325.666 596.303 334.738 603.589 338.21 613.463V613.462ZM320.745 524.774C330.856 520.802 342.054 524.452 349.408 532.014C353.345 536.061 356.124 540.981 356.486 546.645C356.511 547.078 356.379 547.506 356.098 547.837C353.852 550.491 351.602 553.141 349.34 555.78C349.182 555.964 348.905 555.975 348.73 555.808C341.666 549.034 330.524 545.885 321.23 545.977C316.748 546.021 312.393 546.911 308.43 548.686C305.503 538.779 311.204 528.522 320.745 524.774ZM392.265 519.264C395.427 515.177 399.282 511.52 402.027 507.129C403.616 504.587 406.939 497.743 402.887 495.771C398.549 493.656 395.341 500.424 393.423 503.048C391.83 505.238 390.172 507.382 388.476 509.498C388.357 509.645 388.131 509.611 388.055 509.439C387.475 508.143 386.594 506.88 385.937 505.785C384.728 503.761 383.389 501.79 381.979 499.899C379.265 496.269 376.158 492.765 372.976 489.535C376.917 489.674 381.059 488.312 384.476 486.789C385.371 486.39 386.232 485.916 387.067 485.404C388.392 484.593 390.305 483.598 391.315 482.32C392.59 480.709 390.983 479.46 389.445 479.319C388.878 479.268 388.311 479.215 387.749 479.163C394.911 474.127 398.695 465.112 397.494 456.42C397.383 455.63 396.339 455.324 395.925 456.083C395.129 457.549 394.127 458.795 393.126 460.071C393.723 456.78 395.09 453.58 397.417 451.154C398.081 450.464 399.04 449.713 398.342 448.685C397.625 447.632 395.84 447.667 394.741 447.808C391.494 448.225 388.234 449.643 385.469 451.346C382.61 453.11 379.572 455.592 377.97 458.593C377.629 459.236 378.515 459.827 379.005 459.307C381.08 457.11 382.895 454.893 385.401 453.135C387.919 451.372 390.74 450.062 393.727 449.31C394.425 449.132 395.525 448.758 396.241 449.025C397.455 449.479 396.59 450.281 396.028 450.962C395.15 452.019 394.417 453.193 393.829 454.43C392.734 456.726 392.142 459.201 391.92 461.722C391.882 461.839 391.877 461.959 391.89 462.077C391.882 462.185 391.873 462.294 391.865 462.403C391.839 462.791 392.206 462.912 392.495 462.798C392.662 462.828 392.845 462.788 393.032 462.646C393.931 461.959 394.711 461.103 395.397 460.169C395.614 459.876 396.083 460.033 396.07 460.395C395.78 468.162 390.995 475.484 383.982 479.036C383.147 479.458 383.522 481.096 384.595 480.886C385.405 480.727 387.624 481.233 387.987 481.263C388.396 481.298 388.554 481.801 388.238 482.062C388.166 482.125 388.089 482.184 388.017 482.236C383.262 485.538 378.153 486.971 372.605 488.302C372.341 488.366 371.787 488.836 371.672 489.077C369.414 493.781 367.253 498.146 363.555 501.947C363.18 502.333 362.796 502.711 362.4 503.077C362.234 503.233 362.063 503.387 361.893 503.539C361.744 503.67 361.51 503.54 361.544 503.345C361.595 503.061 361.659 502.779 361.68 502.565C361.791 501.453 361.906 500.342 362.025 499.23C362.119 498.314 360.96 497.434 360.248 498.322C357.168 502.171 352.877 504.892 348.062 506.021C345.68 506.58 343.162 506.76 340.724 506.525C340.158 506.47 339.302 506.478 338.786 506.225C338.151 505.913 338.326 506.106 338.935 505.819C340.154 505.243 341.334 504.689 342.356 503.797C342.663 503.528 342.599 503.096 342.365 502.805C342.327 502.727 342.267 502.654 342.178 502.598C339.834 501.153 337.201 500.223 334.474 499.829C333.34 499.665 332.185 499.586 331.039 499.617C330.596 499.629 329.284 499.981 328.917 499.806C327.149 498.961 329.659 497.078 330.119 496.7C332.339 494.871 334.887 493.435 337.597 492.46C340.558 491.393 343.503 491.183 346.587 490.771C347.244 490.684 347.448 489.62 346.69 489.522C343.285 489.084 339.489 490.076 336.361 491.384C333.268 492.681 329.893 494.601 327.737 497.23C327.09 498.022 326.506 499.033 327.086 500.037C327.755 501.205 328.892 500.964 330.03 500.845C333.712 500.461 337.503 501.229 340.78 502.929C340.269 503.198 339.766 503.484 339.246 503.75C338.543 504.11 337.44 504.392 336.83 504.923C336.179 505.489 336.093 506.463 336.673 507.116C337.453 507.994 339.272 507.997 340.363 508.135C341.739 508.309 343.132 508.381 344.517 508.3C350.112 507.975 355.574 505.754 359.656 501.964C359.601 502.452 359.545 502.939 359.494 503.427C359.306 505.212 360.712 506.895 362.562 505.736C365.088 504.15 367.261 501.226 368.885 498.786C370.5 496.353 371.978 493.525 372.639 490.625C375.123 494.141 377.479 497.695 379.818 501.314C381.045 503.214 382.273 505.115 383.5 507.013C384.318 508.277 385.153 509.984 386.231 511.218C386.487 511.509 386.499 511.936 386.253 512.233C381.774 517.663 377.091 522.934 372.554 528.306C367.85 533.875 363.167 539.462 358.467 545.035C358.834 540.289 356.456 535.947 353.281 532.279C349.383 527.775 344.452 524.256 338.773 522.346C328.031 518.733 314.933 522.125 309.087 532.279C306.155 537.375 305.397 543.633 307.442 549.16C304.681 550.525 302.128 552.331 299.887 554.607C295.511 559.051 292.669 564.753 291.6 570.83C278.646 570.918 266.515 562.882 264.014 549.643C262.749 542.932 264.049 535.674 268.007 530.043C271.748 524.716 277.569 520.946 283.913 519.489C290.705 517.928 299.836 519.209 304.178 525.241C304.783 526.083 306.023 525.258 305.52 524.363C301.804 517.766 294.127 515.559 286.9 516.241C279.558 516.934 272.536 520.516 267.662 526.019C262.744 531.568 260.525 538.824 260.874 545.944C252.544 546.19 245.155 552.413 241.078 559.29C236.949 566.259 235.833 574.78 238.295 582.514C239.765 587.135 242.382 591.29 245.739 594.682C243.029 595.044 241.342 597.641 240.243 600.025C238.636 603.508 237.882 607.386 237.997 611.212C238.206 618.046 241.342 626.482 247.589 630.059C245.927 633.016 244.76 636.25 244.176 639.589C242.489 649.262 246.106 659.926 253.742 666.266C252.063 669.696 251.309 673.57 251.164 677.365C250.78 687.427 255.386 697.749 264.62 702.519C273.44 707.077 284.497 705.381 290.603 697.287C293.888 692.936 295.393 687.887 295.43 682.789C303.671 686.119 313.39 686.694 319.888 679.715C321.746 677.72 323.309 675.329 324.524 672.726C333.808 675.571 345.415 674.913 352.335 667.372C357.895 661.31 358.722 651.712 355.782 644.163C357.018 643.767 358.223 643.266 359.378 642.648C366.698 638.734 371.845 629.956 369.958 621.629C376.273 621.723 383.265 620.859 388.587 617.399C393.227 614.379 398.025 608.719 397.931 602.914C397.918 602.014 396.423 601.856 396.312 602.781C395.736 607.636 391.51 611.644 387.508 614.086C382.676 617.033 377.312 618.039 371.704 618.216C366.336 618.384 360.723 617.771 355.858 615.364C351.226 613.072 347.779 609.141 345.576 604.529C343.237 599.643 342.014 594.018 342.133 588.611C342.257 583.008 344.473 577.734 348.15 573.519C354.814 565.881 365.619 562.408 375.556 564.252C386.716 566.325 394.193 576.045 396.98 586.515C397.146 587.14 398.066 586.816 397.93 586.2C396.549 580.085 393.69 574.087 389.387 569.519C389.152 569.267 388.867 568.797 388.765 568.467V568.463C385.377 557.617 381.244 545.776 384.18 534.347C385.616 528.744 388.756 523.804 392.263 519.267L392.265 519.264Z" fill="#101110"/>
<path d="M309.185 474.123C310.749 475.822 312.423 477.414 314.23 478.859C316.855 480.963 319.982 483.2 323.255 484.515C322.428 484.624 321.601 484.751 320.771 484.772C319.079 484.816 317.409 484.638 315.734 484.402C315.304 484.342 314.959 484.822 315.091 485.16C315.103 485.292 315.171 485.423 315.308 485.538C321.627 490.818 331.452 491.832 339.101 489.093C339.813 488.84 339.63 487.744 338.854 487.785C335.036 487.983 331.265 488.612 327.43 488.366C324.916 488.205 322.415 487.708 320.097 486.772C319.952 486.715 320.003 486.502 320.157 486.515C322.142 486.674 324.154 486.451 325.781 485.598C326.041 485.46 326.122 485.229 326.088 485.004C326.122 484.843 326.075 484.658 325.905 484.556C324.115 483.474 322.159 482.682 320.361 481.597C318.457 480.448 316.633 479.162 314.916 477.752C313.369 476.481 311.907 475.103 310.548 473.633C309.739 472.759 309.031 471.765 308.294 470.802C308.154 470.617 308.337 470.364 308.559 470.437C310.493 471.077 312.568 471.498 314.481 471.249C315.074 471.172 315.223 470.331 314.639 470.145C314.617 470.098 314.584 470.052 314.537 470.009C313.424 468.972 312.432 467.851 311.575 466.616C311.371 466.317 311.546 465.912 311.907 465.858C313.092 465.677 315.218 465.895 316.262 466.015C316.565 466.049 316.842 466.175 317.114 466.307C317.57 466.527 318.188 466.025 318.056 465.452C317.421 462.636 315.111 459.343 312.277 457.606C312.043 457.464 312.133 457.109 312.405 457.082C314.817 456.847 317.199 456.655 319.704 456.968C323.381 457.426 326.952 458.626 330.28 460.22C330.898 460.515 331.332 459.644 330.761 459.293C327.382 457.21 323.662 456.028 319.704 455.617C316.172 455.25 312.051 455.203 308.66 456.432C308.625 456.442 308.587 456.455 308.553 456.47C308.515 456.485 308.472 456.497 308.434 456.512C308.192 456.605 308.102 456.847 308.141 457.057C308.149 457.187 308.213 457.317 308.354 457.431C309.926 458.676 311.724 459.531 313.19 460.941C314.311 462.019 315.197 463.299 316.002 464.623C314.093 464.086 311.877 464.395 310.105 465.115C309.764 465.254 309.598 465.643 309.811 465.968C310.761 467.443 311.873 468.763 313.181 469.911C312.355 469.817 311.528 469.757 310.71 469.6C309.282 469.328 307.881 468.924 306.521 468.425C306.334 468.357 306.16 468.382 306.014 468.458C305.657 468.472 305.307 468.813 305.469 469.199C306.236 471.032 307.838 472.66 309.185 474.123V474.123Z" fill="#101110"/>
<path d="M357.116 428.472C356.903 425.862 356.604 423.095 357.678 420.628C358.326 419.139 359.332 417.839 360.244 416.497C360.38 416.298 360.691 416.371 360.725 416.609C361.241 420.06 363.712 423.606 366.341 425.293C366.516 425.405 366.712 425.402 366.882 425.329C367.104 425.319 367.309 425.185 367.368 424.895C367.751 423.028 367.926 421.178 368.8 419.515C368.94 419.251 369.315 419.223 369.49 419.465C370.385 420.712 371.126 422.047 371.731 423.476C371.761 423.54 371.8 423.59 371.842 423.629C371.855 424.182 372.618 424.474 372.916 423.91C373.845 422.14 374.16 419.939 374.207 417.827C374.211 417.652 374.441 417.589 374.539 417.736C375.128 418.651 375.75 419.553 376.261 420.501C377.339 422.501 378.246 424.591 378.996 426.735C379.7 428.747 380.258 430.817 380.675 432.905C381.063 434.836 381.165 436.802 381.498 438.734C381.451 438.922 381.489 439.077 381.578 439.193C381.578 439.194 381.578 439.194 381.582 439.195C381.621 439.414 381.859 439.487 382.06 439.441C382.281 439.47 382.524 439.417 382.691 439.27C384.148 437.985 385.064 435.933 385.554 433.824C385.596 433.634 385.869 433.642 385.903 433.834C386.261 435.99 386.376 438.185 386.117 440.358C385.695 443.912 384.101 446.898 382.895 450.208C382.648 450.882 383.436 451.573 383.998 450.966C389.38 445.138 388.72 436.173 386.141 429.314C385.869 428.594 384.825 428.893 384.91 429.588C384.544 431.291 384.122 432.977 383.457 434.592C383.163 435.31 382.788 435.991 382.426 436.677C382.311 433.216 381.327 429.571 380.262 426.426C379.55 424.315 378.677 422.265 377.658 420.282C376.703 418.425 375.656 416.215 374.121 414.77C373.831 414.499 373.107 414.778 373 415.422C372.758 416.844 372.915 418.302 372.681 419.728C372.544 420.562 372.31 421.377 372.114 422.198C371.479 420.592 370.627 419.111 369.566 417.722C369.353 417.44 368.927 417.366 368.671 417.654C367.444 419.054 366.464 421.13 366.238 423.122C365.271 421.929 364.372 420.681 363.724 419.288C362.842 417.392 362.655 415.382 362.007 413.429C361.828 412.887 361.099 412.936 360.895 413.409C359.829 414.778 358.939 416.026 358.039 417.359C357.341 418.392 356.672 419.45 356.216 420.613C355.185 423.25 355.47 425.97 356.097 428.661C356.229 429.237 357.167 429.048 357.115 428.469L357.116 428.472Z" fill="#101110"/>
<path d="M318.409 440.394C316.761 440.106 315.043 439.993 313.723 438.927C313.488 438.739 312.47 439.085 312.512 439.472C312.849 442.329 313.986 445.676 315.669 448.048C317.34 450.407 320.288 453.039 323.084 453.868C323.612 454.025 324.136 453.307 323.778 452.866C321.92 450.592 318.968 449.455 317.118 447.098C315.665 445.243 315.098 443.055 314.306 440.928C314.251 440.783 314.392 440.645 314.536 440.703C316.39 441.454 320.08 441.96 320.237 441.863C320.663 441.779 321.013 441.54 320.395 440.921C320.37 440.895 316.04 433.84 314.826 429.746C313.82 426.354 313.514 422.977 313.351 419.515C313.343 419.286 313.594 419.143 313.791 419.262C314.758 419.854 315.938 420.214 317.033 420.394C317.336 420.443 317.625 420.548 317.924 420.635C318.346 420.756 318.874 420.25 318.597 419.735C317.434 417.552 316.501 415.224 315.985 412.801C315.546 410.75 315.648 408.844 315.798 406.842C315.819 406.569 316.117 406.409 316.36 406.544C317.886 407.396 319.39 408.201 320.775 409.344C322.471 410.742 323.966 412.367 325.117 414.239C325.407 414.712 326.088 414.248 325.833 413.771C323.749 409.947 319.953 406.257 315.628 405.058C315.594 405.043 315.556 405.03 315.513 405.023C315.509 405.021 315.5 405.018 315.492 405.017C315.377 404.985 315.279 405 315.193 405.04C314.989 405.097 314.797 405.239 314.724 405.449C313.182 409.778 314.801 414.999 316.889 419.045C315.773 418.7 314.546 418.379 313.74 417.667C313.501 417.457 313.344 417.177 313.177 416.909C312.922 416.501 312.159 416.518 312.056 417.091C311.285 421.408 311.992 426.094 313.296 430.252C314.391 433.744 316.04 437.469 318.409 440.393V440.394Z" fill="#101110"/>
<path d="M326.885 414.516C326.786 414.99 327.477 415.261 327.698 414.809C328.584 413 328.069 410.599 327.008 408.71C326.871 408.47 327.088 408.19 327.353 408.259C331.596 409.337 335.18 411.481 338.039 415.025C341.49 419.307 342.939 424.294 344.554 429.425C344.669 429.798 345.721 429.591 345.815 429.412C347.072 427.074 348.091 423.596 347.861 420.637C347.844 420.472 348.057 420.39 348.16 420.518C349.855 422.62 351.036 424.927 352.305 427.44C354.227 431.248 356.029 435.093 357.132 439.224C357.35 440.035 358.568 439.619 358.372 438.815C357.269 434.309 355.471 430.001 353.532 425.794C352.156 422.801 350.558 418.996 347.26 417.686C346.774 417.494 346.318 417.858 346.323 418.275C346.327 418.642 346.365 419.007 346.344 419.373C346.267 420.851 346.335 422.326 346.097 423.805C345.905 424.98 345.581 426.121 345.278 427.269C344.303 422.229 342.168 417.081 338.861 413.226C335.665 409.498 329.866 405.972 325.452 406.693C325.439 406.696 324.77 406.985 324.877 407.414C325.44 409.699 327.425 411.859 326.884 414.517L326.885 414.516Z" fill="#101110"/>
</g>
<g opacity="0.08">
<path d="M136.9 626.474C136.596 627.598 135.81 628.795 134.542 628.868C133.369 628.937 132.107 628.247 131.21 627.556C129.168 625.982 127.738 623.585 126.261 621.518C124.598 619.189 122.97 616.835 121.378 614.459C116.301 606.879 111.557 599.084 106.918 591.23C111.221 590.589 115.844 588.892 119.112 586.036C119.524 585.678 118.974 585.032 118.525 585.305C116.521 586.523 114.621 587.783 112.43 588.669C110.487 589.454 108.464 589.992 106.406 590.362C105.394 588.646 104.386 586.928 103.382 585.208C92.0918 565.866 80.7924 546.471 71.1776 526.224C66.0701 515.466 61.4878 504.453 57.6579 493.176C60.9802 493.091 64.3016 492.72 67.5705 492.117C71.0437 491.478 74.6068 490.67 77.8992 489.363C78.4207 489.155 78.2056 488.351 77.6486 488.513C74.3379 489.472 71.087 490.485 67.6964 491.134C64.3347 491.777 60.9505 492.157 57.5391 492.39C54.9682 484.723 53.997 476.351 55.7972 468.403C57.4457 461.126 61.5532 454.591 67.7574 450.364C73.6043 446.38 80.8286 444.871 87.6524 447.046C94.4416 449.208 100.005 454.42 103.747 460.36C108.119 467.3 110.241 475.388 111.947 483.329C113.136 488.857 114.262 494.399 115.377 499.943C114.477 500.602 113.629 501.319 112.636 501.866C111.34 502.581 109.939 503.095 108.518 503.491C107.954 503.649 108.213 504.463 108.771 504.351C110.263 504.051 111.668 503.537 113.016 502.827C113.877 502.374 114.825 501.836 115.624 501.181C116.029 503.192 116.43 505.204 116.836 507.214C115.544 507.873 114.335 508.875 113.128 509.642C111.648 510.582 110.145 511.481 108.617 512.339C105.554 514.059 102.397 515.618 99.162 516.994C92.7234 519.732 86.0819 521.499 79.3208 523.219C78.7939 523.353 78.9116 524.262 79.4707 524.184C86.4126 523.229 93.2727 520.873 99.677 518.081C102.821 516.711 105.897 515.184 108.882 513.497C110.409 512.634 111.909 511.731 113.384 510.787C114.548 510.043 115.964 509.274 117.065 508.334C117.146 508.744 117.228 509.152 117.312 509.56C119.605 520.894 121.861 532.237 124.029 543.596C123.925 543.621 123.819 543.675 123.726 543.77C120.85 546.686 117.23 548.645 113.192 549.371C112.691 549.46 112.819 550.34 113.331 550.267C117.457 549.678 121.294 547.877 124.293 544.986C125.46 551.129 126.602 557.277 127.704 563.431C130.457 578.779 132.979 594.168 135.152 609.607C133.974 610.359 132.862 611.215 131.667 611.946C130.247 612.818 128.705 613.484 127.136 614.037C126.595 614.227 126.834 615.071 127.389 614.898C130.094 614.051 133.116 612.86 135.347 610.971C135.667 613.254 135.976 615.539 136.278 617.824C136.538 619.788 136.818 621.75 137.093 623.714C137.159 624.653 137.136 625.582 136.898 626.47L136.9 626.474ZM138.478 624.528C136.44 605.74 133.359 587.043 130.094 568.434C126.813 549.724 123.171 531.08 119.424 512.46C117.576 503.293 115.748 494.118 113.826 484.966C112.087 476.661 110.039 468.245 105.743 460.841C102.185 454.71 96.8511 449.297 90.2339 446.547C86.1677 444.855 77.5555 444.822 77.4644 444.723C71.2003 437.908 76.9264 427.691 82.6076 422.614C86.1723 419.429 90.2951 416.953 94.1907 414.208C97.9094 411.589 101.746 408.667 104.215 404.775C106.402 401.33 106.873 396.297 103.011 393.795C101.364 392.728 99.3583 392.804 97.6737 393.749C95.8134 394.794 94.6364 396.593 93.0844 397.993C91.7014 399.242 88.5426 400.961 87.3126 398.568C86.1334 396.267 88.3316 393.9 89.989 392.624C91.6696 391.33 93.3943 390.193 94.6338 388.433C95.7957 386.785 96.4965 384.834 96.7362 382.84C97.273 378.429 96.3255 374.577 92.4 371.43C89.9551 369.468 82.4158 369.174 80.9546 369.988C81.941 365.388 79.7642 359.795 74.8663 358.619C69.7541 357.391 64.272 362.935 66.1697 367.932C65.3499 368.729 63.902 368.219 63.1179 367.567C61.8614 366.519 61.8268 364.654 61.8746 363.149C61.9676 360.144 62.0314 357.398 60.9094 354.546C58.9389 349.524 54.6699 345.473 49.5207 343.836C44.1374 342.124 38.1135 343.337 33.4445 346.382C28.5318 349.585 25.3221 354.718 24.4018 360.494C23.8696 363.833 24.0594 367.271 24.9495 370.534C25.3785 372.102 25.9737 373.621 26.7096 375.073C27.6969 377.017 29.0594 379.006 28.7895 381.292C28.7225 381.853 29.5733 382.09 29.6572 381.515C30.119 378.291 27.9477 375.65 26.8511 372.792C25.7163 369.831 25.2122 366.655 25.3435 363.489C25.6025 357.261 28.5721 351.353 33.7603 347.812C38.5349 344.553 44.8475 343.344 50.3005 345.588C55.5369 347.745 59.7311 352.734 60.4751 358.414C60.8759 361.47 59.495 365.42 61.621 368.043C62.9476 369.683 65.5729 370.397 67.1491 368.926C68.5673 369.898 70.8981 369.749 72.294 368.338C72.5875 368.041 72.2717 367.526 71.8745 367.646C70.5591 368.047 68.2824 368.529 67.4677 367.389C67.3059 366.988 67.2089 366.582 67.1692 366.181C67.1717 366.137 67.1721 366.096 67.1746 366.052C67.1804 365.98 67.1686 365.916 67.1491 365.856C67.065 362.226 71.5283 358.951 75.0211 360.143C79.2428 361.588 80.7668 367.186 79.0637 371.004C79.0006 371.145 78.9769 371.282 78.9857 371.411C78.4781 371.868 78.0217 372.355 77.6336 372.838C75.5486 375.42 74.2561 378.557 73.6483 381.803C72.9612 385.474 73.0767 389.25 73.5028 392.944C73.9464 396.804 74.5605 400.71 75.3622 404.512C75.4566 404.961 76.2223 404.851 76.1715 404.386C75.4145 397.464 73.5402 390.528 74.6842 383.534C75.3835 379.247 77.4929 373.636 81.5199 371.476C84.8821 370.424 88.7766 371.16 91.5478 373.342C94.7898 375.895 95.9253 380.247 94.9014 384.171C94.3849 386.147 93.3341 387.922 91.8058 389.286C90.1324 390.781 88.0344 391.836 86.7054 393.702C85.6684 395.16 85.1398 397.213 85.8233 398.93C86.5091 400.662 88.2968 401.486 90.0839 401.219C92.0819 400.92 93.7418 399.614 95.0861 398.185C96.4605 396.725 98.0295 394.687 100.218 394.608C102.389 394.531 103.995 396.717 104.269 398.687C104.595 401.055 103.293 403.397 101.887 405.195C96.1541 412.52 86.9653 415.941 80.3374 422.285C74.4228 427.947 69.8347 438.294 75.7066 445.421C73.8496 445.871 72.0253 446.545 70.2711 447.437C63.9357 450.657 58.9491 456.308 56.3305 462.89C53.3068 470.492 53.2143 478.955 54.9803 486.867C55.4231 488.856 55.9892 490.811 56.6559 492.735C56.6725 492.782 56.6926 492.821 56.7175 492.856C63.7364 514.592 73.8122 535.218 84.7935 555.199C90.4652 565.514 96.3702 575.698 102.287 585.872C108.381 596.359 114.585 606.793 121.41 616.825C123.248 619.532 125.127 622.205 127.067 624.839C128.622 626.948 130.321 629.038 132.898 629.893C135.134 630.635 137.117 629.563 137.952 627.378C138.255 626.59 138.494 624.688 138.477 624.521L138.478 624.528Z" fill="#101110"/>
<path d="M62.076 429.971C64.8632 433.331 65.5238 437.693 66.5629 441.808C66.7056 442.38 67.5131 442.108 67.4206 441.555C66.8138 437.952 66.359 433.917 64.3525 430.761C63.5125 429.439 62.4477 428.267 61.3776 427.129C59.6713 425.31 57.9275 423.664 55.7638 422.393C51.1471 419.683 45.8599 418.359 41.1401 415.825C35.9781 413.053 31.2243 409.292 27.7713 404.521C26.0381 402.124 24.6071 399.205 24.9765 396.165C25.2949 393.574 26.8197 391.012 29.393 390.177C29.7683 390.055 32.7689 389.541 34.0904 390.129C38.4259 392.061 40.8583 396.185 43.6824 399.756C43.9789 400.13 44.6143 399.781 44.3379 399.357C41.574 395.163 38.2709 390.057 33.2465 388.4C31.1274 387.699 29.0231 387.845 27.2392 389.183C23.6108 391.336 22.5211 396.268 23.7109 400.24C25.3684 405.763 30.241 410.213 34.7032 413.582C37.0741 415.371 39.6037 416.961 42.3141 418.185C44.7574 419.289 47.3 420.163 49.7911 421.148C52.4486 422.2 55.134 423.389 57.3822 425.187C59.1006 426.561 60.6734 428.278 62.0781 429.971L62.076 429.971Z" fill="#101110"/>
<path d="M121.381 575.883C118.398 577.968 115.108 579.465 111.475 579.924C110.887 579.999 110.888 580.923 111.49 580.86C115.31 580.459 118.991 579.067 121.894 576.519C122.243 576.212 121.767 575.612 121.38 575.882L121.381 575.883Z" fill="#101110"/>
<path d="M107.733 489.353C108.248 489.02 107.782 488.322 107.252 488.562C104.709 489.713 102.244 491.01 99.6487 492.059C97.0798 493.097 94.4518 493.991 91.7811 494.732C86.3728 496.236 80.9179 496.907 75.3505 497.449C74.8074 497.502 74.8071 498.298 75.3662 498.303C80.9714 498.375 86.7176 497.309 92.1027 495.815C97.435 494.337 103.061 492.375 107.735 489.352L107.733 489.353Z" fill="#101110"/>
</g>
<g opacity="0.08" clip-path="url(#clip1_104_8618)">
<path d="M335.89 41.4657C338.76 32.8457 346.764 25.6169 356.118 25.3372C358.788 25.2575 361.44 25.7125 363.923 26.6923C364.982 27.111 365.958 27.6478 366.872 28.2787C367.596 27.7519 368.495 27.4107 369.33 27.1315C370.359 26.7879 371.428 26.5618 372.508 26.4502C373.555 26.3407 374.609 26.3675 375.655 26.4987C376.689 26.6276 377.838 26.8124 378.765 27.3134C379.075 27.4808 378.887 27.9321 378.555 27.8777C377.583 27.72 376.656 27.415 375.67 27.3159C374.669 27.215 373.649 27.2335 372.647 27.3346C371.645 27.4374 370.656 27.6519 369.7 27.9709C368.989 28.2069 368.33 28.5499 367.65 28.849C368.598 29.5849 369.475 30.419 370.297 31.3213C370.601 31.6518 370.139 32.1644 369.816 31.8372C368.228 30.2255 366.22 29.1676 364.147 28.3105C362.108 27.4646 359.856 26.9894 357.649 26.9158C353.258 26.7674 349.024 28.1906 345.476 30.7486C338.254 35.9505 335.057 44.9383 335.783 53.6131C336.21 58.683 337.888 63.4485 340.462 67.8157C340.65 68.135 340.185 68.4267 339.977 68.1233C334.79 60.5323 332.97 50.2429 335.89 41.4658L335.89 41.4657Z" fill="#101110"/>
<path d="M364.996 85.4856C367.716 86.3039 370.54 86.7039 373.355 87.0442C376.146 87.3792 378.999 87.4401 381.795 87.138C387.509 86.5208 392.762 84.1588 397.104 80.4089C405.229 73.3891 410.331 61.4929 405.422 51.1905C403 46.1037 398.585 42.1269 393.008 40.9158C392.645 40.8377 392.773 40.2997 393.134 40.3571C398.185 41.1706 402.573 44.6007 405.282 48.8451C408.25 53.4978 409.195 59.0217 408.245 64.4317C407.227 70.2323 404.128 75.5912 400.026 79.7691C395.788 84.085 390.455 87.235 384.469 88.339C381.204 88.9408 377.862 88.9959 374.567 88.6182C371.203 88.2306 368.038 87.2445 364.841 86.1747C364.418 86.0324 364.557 85.353 364.997 85.4859L364.996 85.4856Z" fill="#101110"/>
<path d="M379.474 46.162C381.893 45.1672 384.322 46.8025 386.102 48.3214C387.568 49.5689 388.626 51.252 389.154 53.0921C389.479 51.0405 389.239 48.8783 388.062 47.116C387.33 46.0209 386.288 45.017 385.193 44.2888C384.037 43.5207 382.687 43.1767 381.315 43.0669C380.984 43.039 380.808 42.524 381.201 42.4333C384.21 41.7382 387.093 44.0316 388.608 46.4573C390.023 48.7224 390.304 51.8311 389.426 54.3413C389.427 54.3528 389.429 54.3624 389.43 54.3722C389.473 54.666 388.974 54.7591 388.912 54.472C388.896 54.4405 388.887 54.4048 388.889 54.3642C388.476 52.2656 387.376 50.3675 385.691 49.0309C384.843 48.3586 383.855 47.7483 382.87 47.3013C381.782 46.8089 380.778 46.958 379.623 46.9983C379.118 47.015 379.036 46.3418 379.473 46.1619L379.474 46.162Z" fill="#101110"/>
<path d="M365.84 43.4925C366.628 42.3818 367.8 41.5036 368.973 40.8314C370.016 40.2329 371.322 39.6093 372.557 39.905C372.976 40.0071 372.937 40.6622 372.491 40.6719C371.405 40.6959 370.279 41.2106 369.349 41.73C368.288 42.321 367.174 43.0833 366.47 44.0933C366.066 44.6734 365.872 45.4003 365.675 46.0705C365.432 46.9058 365.261 47.765 365.156 48.628C364.975 50.1173 365.039 51.5889 365.235 53.0603C365.95 50.545 367.089 47.9049 369.218 46.3468C370.259 45.585 371.577 44.7643 372.869 44.536C374.084 44.3204 375.453 44.8203 376.267 45.7505C376.533 46.0539 376.236 46.4656 375.862 46.3138C374.818 45.8948 373.957 45.2214 372.772 45.5186C371.631 45.8051 370.39 46.5201 369.454 47.2176C367.256 48.8554 366.379 51.6614 365.483 54.1264C365.446 54.232 365.362 54.2897 365.274 54.3054C365.116 54.4099 364.846 54.3789 364.785 54.1575C364.277 52.2787 364.208 50.2804 364.424 48.3521C364.538 47.3416 364.745 46.3426 365.036 45.3684C365.236 44.7083 365.439 44.0584 365.84 43.4925Z" fill="#101110"/>
<path d="M357.766 40.1368C358.512 37.9633 359.443 35.5812 361.368 34.1902C363.892 32.3662 367.075 33.0008 369.644 34.3797C370.915 35.0616 372.365 35.9614 373.22 37.1534C373.428 37.4436 373.039 37.8851 372.731 37.6769C371.399 36.7831 370.244 35.7181 368.81 34.9639C367.286 34.1652 365.475 33.5765 363.744 33.9543C362.133 34.3032 360.861 35.3739 360.007 36.7503C359.573 37.4511 359.266 38.214 358.938 38.9647C359.933 38.2485 361.162 37.8658 362.387 37.662C363.341 37.505 364.317 37.5011 365.272 37.6513C366.041 37.7726 367.11 37.9728 367.555 38.6869C367.679 38.8851 367.548 39.2222 367.284 39.2055C366.573 39.1626 365.9 38.7768 365.2 38.632C364.365 38.4601 363.511 38.4245 362.661 38.4738C361.055 38.5676 359.323 39.1321 358.241 40.3729C358.239 40.3761 358.236 40.3793 358.235 40.3828C358.215 40.4138 358.191 40.4383 358.164 40.4584C357.981 40.6808 357.579 40.4031 357.747 40.1624C357.753 40.1525 357.761 40.1449 357.766 40.1367L357.766 40.1368Z" fill="#101110"/>
<path d="M389.849 36.7324C388.806 36.6015 387.74 36.5945 386.697 36.7408C385.583 36.8969 384.53 37.2968 383.472 37.6564C383.093 37.7841 382.896 37.2718 383.191 37.0522C385.014 35.6946 387.582 35.5712 389.763 35.8283C392.146 36.1084 394.463 36.9515 396.594 38.0296C396.937 38.2025 396.725 38.6502 396.402 38.6314C396.402 38.6314 396.402 38.6314 396.4 38.631C396.385 38.6314 396.37 38.6298 396.356 38.6266C396.347 38.6263 396.34 38.6266 396.332 38.625C393.94 38.1894 391.474 37.7576 389.066 38.3511C388.055 38.6013 387.163 39.0754 386.275 39.608C385.39 40.1395 384.905 40.9112 384.353 41.7628C384.181 42.0288 383.771 41.8203 383.914 41.5271C384.351 40.6229 384.909 39.7615 385.741 39.177C386.633 38.5518 387.623 37.9916 388.673 37.6863C389.852 37.3428 391.146 37.2103 392.436 37.2605C391.588 37.0277 390.727 36.8427 389.849 36.7324Z" fill="#101110"/>
<path d="M400.518 42.1145C399.964 40.8278 399.561 39.4703 398.789 38.2877C397.921 36.9562 396.745 35.7107 395.506 34.7235C393.995 33.5199 392.208 32.6655 390.342 32.1712C389.427 31.929 388.512 31.7336 387.564 31.6784C386.683 31.6252 385.826 31.8041 384.956 31.8319C384.877 31.9656 384.797 32.0972 384.719 32.2273C383.679 33.9528 382.688 35.7192 381.878 37.5658C381.085 39.3788 380.617 41.2502 380.154 43.1659C380.055 43.5812 379.455 43.5186 379.416 43.1002C379.233 41.0852 380.01 39.0536 380.84 37.2545C381.76 35.259 382.932 33.395 384.138 31.5632C385.981 28.7621 387.98 25.4559 391.266 24.2263C389.927 23.2038 389.01 21.3769 388.832 19.6027C387.3 23.2688 385.031 26.5051 382.836 29.8307C381.575 31.7401 380.537 33.7746 379.572 35.844C378.706 37.6949 378.005 39.7305 376.875 41.4395C376.682 41.7325 376.099 41.5951 376.239 41.2042C376.573 40.2825 376.965 39.3742 377.377 38.472C377.198 37.7039 377.058 36.9334 376.803 36.1782C376.469 35.1898 376.032 34.2363 375.482 33.3487C375.087 32.7154 374.647 32.1445 374.152 31.64C374.279 31.8331 374.393 32.0329 374.484 32.2406C374.965 33.3235 374.491 34.6888 373.435 35.2526C373.154 35.4023 372.734 35.1091 372.938 34.7906C373.229 34.3417 373.671 33.9926 373.816 33.4586C373.934 33.0251 373.787 32.5992 373.56 32.2281C372.98 31.2721 372.047 30.5434 371.269 29.7465C371.241 29.7348 371.214 29.723 371.186 29.713C370.796 29.5668 371.073 29.0308 371.425 29.0728C373.46 29.3213 375.053 31.1156 376.056 32.7694C376.615 33.6887 377.063 34.6819 377.402 35.7012C377.58 36.239 377.757 36.8215 377.871 37.4122C378.152 36.8135 378.437 36.2175 378.711 35.623C379.664 33.5598 380.729 31.5408 381.984 29.6472C383.277 27.6964 384.686 25.8374 385.897 23.8308C387.031 21.9545 388.059 20.0057 388.892 17.9773C388.921 17.8341 388.954 17.6922 388.995 17.5553C389.082 17.2608 389.561 17.2641 389.56 17.6046C389.562 18.8227 389.552 19.9707 389.952 21.1423C390.351 22.3116 391.061 23.28 392.009 24.0666C392.049 24.0997 392.072 24.137 392.085 24.1773C392.16 24.3121 392.135 24.5064 391.943 24.5661C388.857 25.5299 387.014 28.3892 385.408 31.0717C386.107 30.9528 386.863 30.9662 387.53 30.9636C388.533 30.9582 389.57 31.0354 390.548 31.2563C392.507 31.6986 394.356 32.599 395.929 33.8428C397.264 34.898 398.548 36.2768 399.436 37.736C400.212 39.0152 400.629 40.5271 401.004 41.9604C401.089 42.2825 400.646 42.4107 400.518 42.1144L400.518 42.1145Z" fill="#101110"/>
<path d="M399.607 51.8111C402.112 55.2573 403.96 59.5694 403.836 63.892C403.826 64.2171 403.351 64.2465 403.325 63.9151C403.013 59.7351 401.445 55.9617 398.967 52.5981C397.703 50.8816 396.236 49.3234 394.67 47.8771C393.037 46.369 391.339 44.7398 389.1 44.2398C388.626 44.1327 388.696 43.4321 389.173 43.3997C391.506 43.2363 393.447 45.231 395.023 46.7019C396.696 48.2657 398.26 49.9581 399.607 51.8112L399.607 51.8111Z" fill="#101110"/>
<path d="M379.354 50.6804C379.312 50.3454 379.879 50.2397 379.941 50.5756C380.314 52.5378 380.373 54.5246 380.209 56.5131C380.126 57.5083 380.145 58.5133 380.018 59.504C379.893 60.4989 379.584 61.4953 379.292 62.4526C378.673 64.4882 377.834 66.4199 376.915 68.3352C375.986 70.2746 375.067 72.2573 373.926 74.0834C373.768 74.3357 373.411 74.1392 373.521 73.8685C374.313 71.9393 375.3 70.0954 376.087 68.1631C376.864 66.2567 377.517 64.2758 378.072 62.2929C378.329 61.3801 378.521 60.4546 378.74 59.5334C378.968 58.573 379.312 57.6573 379.426 56.6711C379.658 54.6828 379.603 52.6631 379.354 50.6805L379.354 50.6804Z" fill="#101110"/>
<path d="M342.73 37.0232C340.385 39.9951 338.992 43.6254 338.65 47.3922C338.444 49.6761 338.717 51.8646 339.134 54.1062C339.214 54.5245 338.658 54.719 338.495 54.3078C336.972 50.5034 337.274 45.8806 338.68 42.1016C340.028 38.4816 342.481 35.5397 345.596 33.2915C347.299 32.06 349.188 31.0856 351.21 30.4986C351.508 30.4126 351.646 30.8535 351.355 30.9579C347.939 32.171 344.98 34.1681 342.73 37.0232L342.73 37.0232Z" fill="#101110"/>
<path d="M340.101 51.0381C339.561 48.219 340.073 45.5399 341.291 42.9644C341.876 41.7273 342.481 40.4834 343.144 39.2866C343.452 38.7276 343.787 38.1839 344.159 37.6657C344.493 37.1969 344.876 36.5688 345.404 36.3121C345.63 36.202 345.869 36.4021 345.762 36.6436C345.525 37.1682 345.021 37.5931 344.693 38.0706C344.351 38.5657 344.049 39.0867 343.766 39.6178C343.175 40.7262 342.652 41.8744 342.171 43.034C341.133 45.5381 340.653 48.2279 340.666 50.9376C340.668 51.2466 340.165 51.3743 340.101 51.038L340.101 51.0381Z" fill="#101110"/>
</g>
<g opacity="0.08" clip-path="url(#clip2_104_8618)">
<path d="M342.031 219.851C342.343 222.441 342.344 225.072 342.213 227.676C342.091 230.105 341.868 232.58 341.165 234.92C340.494 237.158 339.43 239.265 337.913 241.05C336.509 242.702 334.854 243.748 332.973 244.66C333.336 243.152 333.511 241.585 333.509 239.993C333.495 234.01 331.361 228.314 328.435 222.945C328.4 222.882 325.004 216.745 323.526 213.634C321.929 210.278 320.665 206.844 319.479 203.327C318.304 199.842 316.99 196.421 314.85 193.399C312.96 190.734 310.605 188.288 307.788 186.601C305.078 184.979 302.022 184.335 298.893 184.743C295.765 185.151 292.846 186.429 290.104 187.943C286.778 189.779 283.63 191.901 280.115 193.382C277.772 194.368 275.331 195.289 273.222 196.715C272.845 196.545 272.464 196.409 272.08 196.308C272.244 193.889 273.656 192.027 275.465 190.483C277.164 189.036 279.125 187.709 281.349 187.271C281.297 188.462 280.954 189.62 280.613 190.765C280.347 191.661 281.752 192.019 282.017 191.126C282.372 189.932 282.728 188.72 282.785 187.468C282.839 186.296 282.592 185.132 282.259 184.016C281.331 180.908 280.368 177.818 279.744 174.631C279.116 171.428 278.876 168.145 279.215 164.895C279.537 161.8 280.414 158.525 282.619 156.222C284.755 153.993 288.484 153.406 291.105 155.123C290.343 156.102 289.857 157.497 289.956 158.786C288.834 157.938 287.407 157.52 286.26 158.528C285.731 158.993 285.468 159.794 285.263 160.442C284.277 163.572 284.52 167.096 285.138 170.271C285.414 171.681 285.796 173.067 286.255 174.429C286.765 175.951 287.321 177.572 288.131 178.963C288.435 179.483 289.372 179.132 289.139 178.537C288.234 176.235 287.165 174.071 286.528 171.664C286.045 169.842 285.725 167.977 285.649 166.093C285.565 164.009 285.632 161.511 286.668 159.629C286.838 159.32 286.883 159.258 287.147 159.14C288.537 158.518 289.586 159.672 290.574 160.569C290.628 160.644 290.683 160.72 290.746 160.79C291.013 161.104 291.587 160.76 291.447 160.376C291.145 159.539 290.825 158.853 290.893 157.93C290.966 156.984 291.357 156.096 291.972 155.383C292.015 155.333 292.045 155.281 292.06 155.228C292.179 155.077 292.198 154.867 291.994 154.71C289.834 153.016 286.756 152.699 284.246 153.777C281.438 154.982 279.771 157.866 278.91 160.673C276.894 167.248 278.186 174.677 279.973 181.155C280.442 182.86 281.154 184.589 281.327 186.358C281.329 186.376 281.33 186.393 281.331 186.411C281.321 186.412 281.312 186.412 281.305 186.413C278.776 186.857 276.514 188.415 274.635 190.091C272.908 191.63 271.362 193.768 271.369 196.166C266.524 195.432 261.409 199.786 259.385 203.827C257.883 206.821 257.885 209.924 258.427 213.166C259.031 216.772 260.062 220.303 261.475 223.675C264.402 230.667 268.937 236.549 274.425 241.72C277.347 244.475 280.329 247.168 283.29 249.882C286.095 252.454 288.85 255.106 291.768 257.55C294.55 259.879 297.761 262.083 301.424 262.633C304.733 263.129 308.409 262.428 310.732 259.853C311.098 259.447 310.523 258.901 310.122 259.265C307.883 261.299 304.807 261.892 301.866 261.417C298.748 260.912 295.99 259.277 293.548 257.334C290.876 255.213 288.422 252.812 285.897 250.522C283.155 248.032 280.417 245.536 277.665 243.057C275.031 240.684 272.382 238.31 270.054 235.628C267.789 233.014 265.846 230.132 264.229 227.074C262.656 224.105 261.406 220.968 260.504 217.732C259.623 214.573 258.677 210.934 259.222 207.646C259.759 204.406 261.734 201.531 264.312 199.554C266.522 197.86 269.626 196.418 272.413 197.305C271.964 197.655 271.53 198.032 271.126 198.447C266.75 202.919 266.339 209.851 268.156 215.561C268.268 215.91 268.81 215.766 268.708 215.411C267.26 210.35 267.373 204.134 270.987 199.974C273.209 197.416 276.527 196.29 279.588 195.094C282.82 193.833 285.804 192.225 288.801 190.491C293.974 187.498 300.171 184.547 306.021 187.567C312.091 190.698 315.449 197.002 317.66 203.167C318.952 206.777 320.275 210.352 322.005 213.78C323.82 217.382 326.212 220.662 327.945 224.301C328.454 225.373 331.929 233.197 332.376 237.942C332.816 242.589 331.806 247.146 328.538 250.606C325.154 254.186 320.112 256.997 315.149 257.335C310.736 257.635 306.311 256.279 302.49 254.129C297.401 251.261 293.409 246.811 289.393 242.661C289.047 242.302 288.536 242.846 288.859 243.213C295.316 250.523 303.494 258.995 314.013 258.982C319.303 258.975 324.518 256.428 328.319 252.836C330.421 250.848 331.857 248.41 332.676 245.748C337.499 244.606 340.902 240.352 342.395 235.825C343.214 233.34 343.399 230.702 343.375 228.102C343.349 225.305 343.203 222.521 342.754 219.758C342.685 219.351 341.979 219.442 342.03 219.856L342.031 219.851Z" fill="#101110"/>
<path d="M320.064 175.035C318.104 174.257 315.979 173.945 313.884 174.245C312.396 174.458 311.044 175.041 309.839 175.87C307.072 173.725 303.329 173.631 300.118 174.812C296.019 176.319 292.732 179.424 289.365 182.095C289.056 182.34 289.472 182.866 289.801 182.643C293.045 180.442 295.868 177.599 299.512 176.019C302.55 174.701 306.305 174.42 309.076 176.445C308.662 176.783 308.267 177.148 307.895 177.535C306.142 179.361 304.702 181.498 303.193 183.526C302.919 183.895 303.421 184.413 303.724 184.037C305.321 182.048 306.892 179.904 308.785 178.186C310.84 176.321 313.378 175.383 316.156 175.581C318.795 175.77 321.263 176.913 323.274 178.603C324.421 179.566 325.463 180.659 326.378 181.844C327.276 183.011 327.973 184.299 328.75 185.543C328.986 185.922 329.685 185.676 329.507 185.224C327.816 180.902 324.446 176.774 320.067 175.035L320.064 175.035Z" fill="#101110"/>
</g>
<g opacity="0.08" clip-path="url(#clip3_104_8618)">
<path d="M127.908 207.198C128.357 205.846 129.366 204.755 130.597 204.05C131.937 203.283 133.458 203.115 134.942 202.795C136.812 202.393 138.385 201.501 139.439 199.872C139.56 199.685 139.836 199.866 139.73 200.057C139.086 201.205 138.111 202.125 136.908 202.675C135.782 203.19 134.539 203.359 133.341 203.632C132.048 203.925 130.772 204.359 129.965 205.471C129.279 206.417 128.817 207.687 128.689 208.845C128.396 211.519 129.793 214.019 131.538 215.946C133.19 217.771 135.253 219.259 137.552 220.161C139.858 221.066 142.383 221.385 144.814 220.845C147.114 220.334 149.279 219.073 150.798 217.268C152.423 215.337 153.074 212.914 152.833 210.417C152.574 207.718 151.657 204.931 150.375 202.544C148.939 199.87 146.649 197.615 143.644 196.83C140.789 196.084 137.648 197.164 136.213 199.811C136.088 200.041 135.764 199.822 135.874 199.596C137.002 197.274 139.629 195.953 142.156 195.892C144.933 195.824 147.549 197.324 149.385 199.317C151.524 201.639 152.778 204.679 153.552 207.697C154.24 210.376 154.393 213.235 153.202 215.793C152.091 218.178 150.056 220.072 147.676 221.178C145.253 222.304 142.581 222.529 139.968 222.019C137.259 221.49 134.702 220.186 132.587 218.43C130.444 216.651 128.55 214.354 127.817 211.626C127.43 210.181 127.435 208.623 127.908 207.199L127.908 207.198Z" fill="#101110"/>
<path d="M111.094 187.233C116.038 186.249 121.162 187.291 126.099 188.042C128.869 188.463 131.661 188.827 134.467 188.783C137.613 188.733 140.653 188.023 143.467 186.613C146.502 185.092 149.06 182.947 151.481 180.624C149.261 181.419 146.589 180.363 144.509 179.54C141.29 178.269 137.98 177.129 134.547 176.608C131.07 176.08 127.525 176.23 124.194 177.407C120.789 178.609 117.782 180.671 115.087 183.033C113.887 184.084 111.792 186.158 110.96 186.985C110.856 187.088 110.95 187.262 111.093 187.233L111.094 187.233ZM112.519 218.786C112.463 218.97 112.184 218.88 112.235 218.696C114.318 211.036 113.139 202.462 109.365 195.492C108.835 194.513 108.253 193.562 107.617 192.647C107.01 191.775 105.578 189.967 105.563 189.877C105.481 189.708 105.561 189.565 105.698 189.49C105.761 189.437 105.843 189.406 105.941 189.416L105.944 189.416C106.169 189.44 106.396 189.405 106.604 189.316C109.66 188.013 111.681 185.257 114.074 183.029C116.626 180.654 119.521 178.554 122.75 177.189C125.888 175.862 129.264 175.357 132.663 175.606C136.038 175.853 139.342 176.748 142.519 177.881C145.579 178.972 149.069 180.995 152.338 179.577C152.412 179.545 152.488 179.552 152.552 179.582C152.717 179.47 152.975 179.694 152.836 179.866C148.751 184.934 142.815 188.91 136.206 189.505C130.462 190.021 124.796 188.503 119.12 187.892C116.302 187.588 113.383 187.507 110.574 187.996C109.987 188.098 109.435 188.335 108.945 188.671C108.551 188.941 108.142 189.185 107.716 189.387C107.601 189.442 107.631 189.613 107.757 189.629C111.43 190.106 115.103 190.872 118.678 191.787C122.922 192.872 127.039 194.421 130.734 196.801C132.824 198.147 134.738 199.753 136.375 201.624C136.492 201.758 136.29 201.941 136.169 201.809C130.132 195.209 121.17 192.834 112.661 191.317C110.923 191.008 109.177 190.745 107.44 190.439C107.286 190.413 107.181 190.588 107.277 190.712C107.591 191.111 107.883 191.528 108.169 191.931C108.746 192.746 109.282 193.591 109.777 194.458C110.789 196.233 111.614 198.105 112.268 200.037C113.58 203.912 114.106 208.053 113.787 212.127C113.609 214.379 113.177 216.625 112.519 218.786L112.519 218.786Z" fill="#101110"/>
<path d="M147.397 218.803C146.606 219.661 145.191 219.75 144.093 219.827C142.841 219.915 141.581 219.799 140.357 219.526C137.91 218.979 135.679 217.779 134.027 215.88C133.898 215.732 134.093 215.472 134.26 215.605C135.997 216.995 138.014 218.122 140.157 218.745C141.222 219.054 142.329 219.239 143.437 219.289C144.662 219.344 146.213 219.419 147.205 218.59C147.349 218.47 147.522 218.669 147.397 218.803L147.397 218.803Z" fill="#101110"/>
<path d="M144.456 218.532C141.923 218.768 139.303 217.919 137.408 216.226C137.28 216.111 137.462 215.904 137.602 215.998C139.668 217.382 141.95 218.15 144.435 218.264C144.583 218.271 144.613 218.517 144.456 218.532L144.456 218.532Z" fill="#101110"/>
<path d="M101.291 226.084C101.163 223.386 102.009 220.604 104.068 218.769C105.946 217.093 108.66 216.272 111.093 217.139C111.384 217.243 111.244 217.687 110.949 217.594C108.825 216.926 106.542 217.582 104.866 218.977C103.084 220.46 102.206 222.697 102.099 224.975C101.861 230.057 105.146 235.343 109.917 237.232C112.077 238.087 114.501 238.286 116.742 237.641C118.978 236.999 120.896 235.491 122.25 233.63C124.967 229.897 125.873 223.911 122.716 220.126C121.091 218.178 118.239 217.086 115.806 218.096C113.572 219.025 111.41 221.53 108.753 220.57C108.57 220.504 108.658 220.221 108.844 220.282C111.758 221.245 113.851 217.96 116.408 217.263C118.645 216.651 121.081 217.513 122.727 219.071C126.535 222.675 125.987 229.112 123.478 233.248C122.188 235.375 120.27 237.182 117.944 238.131C115.612 239.081 113.007 239.121 110.603 238.401C105.288 236.806 101.551 231.53 101.291 226.085L101.291 226.084Z" fill="#101110"/>
<path d="M115.269 236.97C112.65 237.049 110.045 236.071 107.934 234.556C106.875 233.797 105.928 232.9 105.159 231.849C104.42 230.839 103.696 229.721 103.317 228.524C103.27 228.371 103.507 228.297 103.577 228.432C104.161 229.558 104.722 230.63 105.574 231.585C106.4 232.509 107.327 233.358 108.345 234.069C110.414 235.513 112.793 236.325 115.286 236.642C115.497 236.67 115.481 236.963 115.269 236.97L115.269 236.97Z" fill="#101110"/>
<path d="M112.608 234.498C112.759 234.54 112.718 234.793 112.558 234.771C110.045 234.438 107.539 232.865 106.252 230.648C106.169 230.506 106.386 230.358 106.49 230.485C107.307 231.453 108.121 232.325 109.207 233.004C110.251 233.657 111.422 234.164 112.608 234.498L112.608 234.498Z" fill="#101110"/>
</g>
<g opacity="0.08" clip-path="url(#clip4_104_8618)">
<path d="M58.5609 40.4342C56.9509 44.8902 55.4207 49.4482 55.5109 54.2456C55.6071 59.3662 57.4519 64.1148 60.0313 68.4686C62.9411 73.3825 66.9855 77.5792 71.6386 80.873C73.9851 82.5342 76.4943 84.0178 79.1158 85.2013C81.788 86.4087 84.6383 86.951 87.5426 87.2339C88.8653 87.3619 90.2018 87.4331 91.5294 87.3526C92.8603 87.2709 94.1776 86.964 95.4744 86.667C97.9807 86.0933 100.452 85.3374 102.821 84.3334C105.152 83.3455 107.377 82.1084 109.471 80.6868C111.554 79.2738 113.68 77.7216 115.306 75.781C116.95 73.8174 118.402 71.6244 119.774 69.4641C121.333 67.0112 122.371 64.2707 122.893 61.4153C123.924 55.7672 122.808 49.9289 119.996 44.9476C118.658 42.5755 116.966 40.4076 114.998 38.5255C113.127 36.735 110.909 35.3257 109.15 33.4149C107.562 31.6902 106.495 29.5566 106.876 27.1609C107.264 24.7306 108.995 22.6741 111.364 21.9786C111.986 21.7958 112.626 21.7119 113.264 21.7231C113.422 21.7258 113.469 21.514 113.326 21.4468C112.237 20.9335 111.034 20.8403 109.789 21.3177C109.017 21.6133 108.319 22.1093 107.647 22.5817C107.038 23.0101 106.299 23.8224 105.511 23.6806C105.308 23.6438 105.202 23.4189 105.239 23.2325C105.291 22.9667 105.42 22.7908 105.588 22.6456C106.011 22.0239 106.535 21.4783 106.964 20.8582C107.422 20.1953 107.839 19.4956 108.198 18.7743C108.562 18.0441 108.866 17.2823 109.11 16.5038C109.295 15.9118 109.393 15.2926 109.536 14.6897C109.573 14.5302 109.423 14.3902 109.266 14.4392C107.818 14.8931 106.596 15.7943 105.417 16.7585C104.758 17.2977 104.107 17.8521 103.467 18.4129C102.784 19.0106 102.255 19.8464 101.502 20.3446C101.27 20.4989 101.024 20.252 101.059 20.0162C101.061 20.007 101.063 19.9977 101.065 19.9885C101.063 19.9688 101.063 19.9491 101.065 19.9286C101.295 18.1646 101.824 16.4423 102.075 14.6752C102.223 13.6353 102.272 12.5465 102.524 11.5218C102.552 11.4075 102.41 11.3316 102.332 11.4203C101.547 12.3135 100.781 13.205 100.146 14.2524C99.2922 15.6617 98.6332 17.1548 97.8528 18.5988C97.843 18.6501 97.8317 18.7014 97.8177 18.7515C97.7247 19.0731 97.2489 19.1886 97.0756 18.8617C96.7917 18.3276 96.7777 17.6926 96.6526 17.1066C96.5094 16.4374 96.3109 15.7785 96.0849 15.133C95.8575 14.4837 95.6128 13.835 95.292 13.2255C95.2577 13.1605 95.2215 13.0969 95.1843 13.0335C95.5486 13.9416 95.8849 14.8616 96.0579 15.8227C96.2666 16.9789 96.2404 18.1234 96.0771 19.284C95.8822 20.6709 95.7817 22.7375 94.4752 23.552C93.1958 24.3494 91.4902 23.8933 90.1205 23.6503C82.9935 22.3846 75.5177 22.0913 69.1475 26.0588C67.6776 26.9744 66.3043 28.0169 65.1501 29.3149C63.8707 30.754 62.8648 32.4069 61.7549 33.9741C61.6271 34.1548 61.3288 34.0022 61.4467 33.8026C62.9668 31.2276 64.6266 28.7103 66.9768 26.8161C69.6312 24.6765 72.621 23.0708 75.9439 22.2701C79.2971 21.4622 82.8467 21.4848 86.2576 21.8535C87.9454 22.0362 89.6172 22.3047 91.2781 22.6539C91.987 22.8028 92.7719 22.969 93.4884 22.7719C94.5078 22.4911 94.5886 21.4053 94.772 20.5156C95.0512 19.1589 95.2753 17.7777 95.0897 16.3928C94.8744 14.7862 94.3681 13.1774 93.9086 11.6286C93.8292 11.3607 94.4269 11.1914 94.502 11.2548C95.5227 12.1216 96.3811 13.5646 96.9306 14.7698C97.217 15.3978 97.4439 16.0456 97.6165 16.7139C97.649 16.8395 97.6836 16.9698 97.7171 17.1028C98.1443 15.8571 98.8255 14.6684 99.5773 13.6331C100.594 12.2329 101.761 10.7251 103.226 9.77196C103.266 9.74631 103.305 9.73595 103.342 9.73755C103.537 9.66247 103.789 9.85716 103.661 10.0908C102.819 11.6235 102.988 13.5568 102.738 15.2481C102.593 16.2316 102.441 17.2641 102.191 18.2587C102.425 18.0429 102.668 17.8434 102.89 17.6587C103.598 17.0678 104.323 16.4927 105.067 15.9471C106.431 14.9464 107.98 14.1449 109.672 13.9383C109.737 13.9306 109.799 13.9095 109.86 13.89C109.977 13.8539 110.116 13.9212 110.133 14.0787C110.304 15.7038 109.614 17.5938 108.964 19.0546C108.656 19.7451 108.279 20.489 107.828 21.1836C108.582 20.7449 109.381 20.4014 110.257 20.2858C111.825 20.0782 113.784 20.5847 114.76 21.9218C114.775 21.9255 114.793 21.9228 114.794 21.9747C114.801 22.1729 114.636 22.3084 114.441 22.2735C111.595 21.7676 108.647 23.3941 107.843 26.2512C107.073 28.9873 108.535 31.4441 110.469 33.2634C112.411 35.0892 114.654 36.5468 116.53 38.4516C118.454 40.4058 120.104 42.6383 121.387 45.0637C124.024 50.0507 125.039 55.7602 124.115 61.3386C123.202 66.8513 120.182 71.5549 116.841 75.923C115.234 78.0237 113.19 79.6706 111.06 81.2202C108.98 82.7325 106.767 84.0601 104.436 85.1485C102.106 86.2371 99.6753 87.1043 97.1864 87.7529C94.5967 88.4263 92.0121 88.9482 89.3251 88.8376C86.5896 88.725 83.6962 88.3997 81.0839 87.5532C78.1994 86.6194 75.4777 85.1162 72.9284 83.4927C68.094 80.4125 63.7817 76.5046 60.4919 71.7946C57.5315 67.5552 55.4603 62.3537 54.7647 57.2173C54.1477 52.6579 55.0333 48.1249 56.5629 43.8301C56.9993 42.6061 57.4816 41.4051 58.0033 40.2151C58.1387 39.9059 58.6776 40.1127 58.5615 40.4339L58.5609 40.4342Z" fill="#101110"/>
<path d="M105.274 25.9333C105.391 25.7698 105.627 25.8585 105.6 26.0608C105.47 27.0168 105.107 27.8994 105.037 28.8813C104.965 29.8734 105.007 30.8699 105.179 31.8504C105.524 33.8104 106.206 35.4832 107.407 37.082C107.532 37.2482 107.262 37.4547 107.121 37.3057C105.761 35.8719 104.75 33.8557 104.441 31.9022C104.285 30.9161 104.263 29.9079 104.39 28.9167C104.511 27.968 104.708 26.7268 105.274 25.9333Z" fill="#101110"/>
<path d="M98.4153 22.7482C97.1939 25.9754 93.636 28.8975 90.0125 28.2014C89.7004 28.1413 89.7946 27.7201 90.0691 27.6855C91.7486 27.4743 93.2921 27.1267 94.7628 26.2517C96.2154 25.3873 97.3449 24.1414 98.0462 22.6031C98.1383 22.4003 98.4958 22.5362 98.4159 22.7479L98.4153 22.7482Z" fill="#101110"/>
<path d="M100.833 32.7914C100.833 33.0573 100.469 33.0475 100.432 32.7999C100.095 30.5482 100.806 27.9733 102.062 26.099C102.202 25.8918 102.532 26.0665 102.406 26.2906C101.847 27.2865 101.38 28.3014 101.115 29.4185C100.849 30.5414 100.831 31.6467 100.832 32.7917L100.833 32.7914Z" fill="#101110"/>
<path d="M115.526 67.3902C115.671 67.2153 115.979 67.4417 115.85 67.632C114.234 70.0088 112.245 72.1953 110.201 74.2073C108.128 76.2478 105.852 78.0624 103.373 79.586C98.724 82.4414 93.0739 84.3815 87.5757 84.3621C84.4955 84.3513 81.3746 83.8186 78.4905 82.7391C78.2078 82.6333 78.2972 82.1876 78.6042 82.2714C83.7441 83.6527 89.267 83.4938 94.4035 82.1557C99.816 80.7456 104.773 77.8527 109.02 74.2534C111.456 72.1898 113.495 69.8387 115.526 67.3896L115.526 67.3902Z" fill="#101110"/>
<path d="M87.9615 79.9904C87.6936 79.9492 87.7471 79.5197 88.0133 79.5206C91.7108 79.5411 95.1071 78.7055 98.479 77.2106C101.967 75.6631 105.045 73.4572 107.759 70.7885C107.944 70.6059 108.207 70.8741 108.044 71.0686C105.512 74.1194 102.221 76.5544 98.6154 78.1832C95.373 79.6481 91.5194 80.5188 87.9615 79.9904Z" fill="#101110"/>
</g>
<defs>
<clipPath id="clip0_104_8618">
<rect width="167.822" height="300" fill="white" transform="translate(237 405)"/>
</clipPath>
<clipPath id="clip1_104_8618">
<rect width="75.7941" height="72.9518" fill="white" transform="matrix(-0.975429 -0.220312 -0.220312 0.975429 417.474 23.6985)"/>
</clipPath>
<clipPath id="clip2_104_8618">
<rect width="78.6051" height="108.768" fill="white" transform="translate(236.895 180.085) rotate(-29.0993)"/>
</clipPath>
<clipPath id="clip3_104_8618">
<rect width="66.6386" height="52.4224" fill="white" transform="matrix(-0.218124 0.975921 0.975921 0.218124 109.937 170)"/>
</clipPath>
<clipPath id="clip4_104_8618">
<rect width="70" height="81" fill="white" transform="matrix(-0.963009 -0.269469 -0.269469 0.963009 136.132 18.8628)"/>
</clipPath>
</defs>
</svg>
