<svg xmlns="http://www.w3.org/2000/svg" version="1.0" viewBox="0 0 1024 1024" fill="#549801"><path d="M501.9 172.1c-.1 18.9-.4 37.5-.8 41.4l-.6 7-2.3-8.9c-3.9-15.4-9.5-27.8-19.9-43.9-4.8-7.6-21.8-25.7-24-25.7-1.7 0-11.6 6.7-16.4 11.2-4.2 3.9-8.9 10-8.9 11.6 0 .6 3 3.1 6.8 5.5 20.9 14 38.7 37.2 46.7 61.1 5.4 16.1 10.6 45.3 8.4 46.7-.6.4-3.7 1-6.9 1.3-10.7 1.2-24.3 5.5-36.5 11.6-23.9 11.8-41.2 29.3-54.4 55-7.4 14.4-11.3 26.5-15.1 47.5-4.4 23.6-10.4 39.9-20.5 55-2.9 4.4-12.4 15.4-21 24.5-27.9 29.4-39.5 45.2-53 72.5-17.9 36.1-25.4 70.1-24.2 110.5.6 21.2 1.9 30.4 7.2 50.8 19 72.3 74.6 132.2 148.2 159.7 13.9 5.1 37.9 11.6 52.8 14.2 12.6 2.2 52.7 2.5 65 .4 35.6-5.8 57.6-12.6 84.5-26 23.5-11.7 41.6-24.7 60.8-43.8 12.5-12.5 17.2-18.1 28.4-33.8 4.4-6.2 17.7-30.8 21.3-39.5 13.6-32.2 19.4-65.9 17.5-100.2-1.1-19.1-3.7-34.2-9-52.6-12.1-42.1-30-71.9-65.1-108.7-17.7-18.6-23.9-26.6-30.4-39.5-6.5-13-9.1-21.4-13.5-43.1-4.7-22.9-6.6-29.7-12.2-42.3-16.9-38.4-51.6-65.7-91.8-72.3-7.8-1.3-10-2-10-3.2 0-.9 2.5-16 5.5-33.6 12.4-72.3 16.5-99.6 15.1-100-5.3-1.8-14.7-3.5-22.3-4.1l-9.3-.7zm9.8 135c5.3.6 13.3 2.2 17.7 3.6 37.4 11.8 61.5 41.8 67.6 83.8 1.9 13.1 6 30.5 9.1 38.3 7.8 19.5 13.1 27.6 36.7 55.1 10.5 12.2 22.6 26.8 26.8 32.3 35.3 46 51.1 99.8 45 152.7-2.6 22-8.8 43.5-17.8 61.7-2.6 5.3-4.1 6.8-10.7 11.2-26 17.3-57.7 29.9-94.6 37.6-29.6 6.2-80.4 9.6-115.6 7.7-38.3-2-88.7-10.6-113.2-19.3-6.7-2.4-7.1-3.3-.6-1.4 22.6 6.8 87.7 10.9 137.6 8.7 46.2-2.1 77.6-7.1 110.8-17.8 28.5-9.2 48.6-19.1 70.8-35.1l7.7-5.5 3.1-9.6c4.8-15 8.8-31.7 9.5-40l.7-7.6-6.4 8c-18.8 23.7-48.8 45.1-82.1 58.7-27.7 11.2-69.1 19.8-106 22-43 2.5-106.7-3.1-144.1-12.8-8.5-2.2-28-8.5-27.5-8.9.2-.2 3 .3 6.3 1.1 26.3 6.2 64.9 8.9 105 7.4 59.6-2.2 97.8-8.7 141.8-24.1 6.5-2.3 11.6-4.4 11.3-4.6-.2-.3-4.6.5-9.8 1.6-5.1 1.1-16 2.7-24.3 3.6-73.4 7.8-145.5-.5-210.3-24.2-6.8-2.5-12.1-4.7-12-4.9.2-.2 3.7.6 7.9 1.6 9.6 2.5 29 5.6 44.9 7.2 16.1 1.6 67 1.6 82.5 0 35.3-3.7 65.5-10 86-18l7-2.7-16-.6c-34.1-1.4-60.4-7-122.1-26.2-45.3-14.1-72.4-19.4-105.2-20.4-10-.3-18.1-.7-17.9-.9s6.4-1.1 13.8-2c11.2-1.4 19.3-1.6 48.9-1.1 33 .6 54.8 1.8 118.5 6.7 33.2 2.5 47.1 3.3 46.5 2.7-.3-.3-9.9-3.2-21.5-6.6-22.1-6.3-28.3-8.4-53.5-17.6-31.1-11.4-45.5-15.6-70.5-20.2-13.6-2.4-17.2-2.7-38.5-2.7-14.7 0-25.7.4-29.4 1.2-3.3.6-6.1 1-6.3.8-.6-.5 12.6-4.5 22.2-6.6 18.6-4 32.8-5.3 60.5-5.3 33.4-.1 65 2.2 107.5 7.9 6.3.8 2.7-.9-16.1-7.5-9.3-3.2-24.6-8.8-34.1-12.4-30.9-11.8-49.9-16.6-73.6-18.7-12.9-1.1-32.5-.2-42.3 2-2.6.6-4.9.9-5.1.6-.9-.8 15.3-6.8 26-9.6 17.7-4.6 33.2-6.3 58.2-6.3 19.4 0 47.4 1.4 56 2.9 2.9.5 2.9.4 1-1.2-3.1-2.6-28.9-15-37.9-18.3-15.2-5.5-30.5-8.3-47.6-8.8-8.5-.3-18.9 0-23 .5-4.1.6-7.6.9-7.8.7-1.1-1.1 20.8-8.8 31-10.9 21-4.3 51-4.7 80.8-1 4.3.5 4.4.4 2.5-1.1-3.2-2.6-24.3-13-32.5-16-17.4-6.2-39.4-8.8-56.5-6.6-4.9.7-9.9 1.4-11 1.8-4.5 1.2.5-1.6 9.5-5.4 19.7-8.4 30.5-10.3 59-10.2 11.8 0 23.6.4 26.3.8 2.6.4 4.7.5 4.7.1 0-2.3-25.4-14.9-37.6-18.7-8.2-2.5-10.3-2.7-26.5-2.7l-17.6-.1 5-2.7c8.2-4.5 17.6-7.9 27.7-10 8-1.7 12.1-1.9 26.8-1.5 9.4.2 17.2.4 17.2.2 0-.1-2.4-1.8-5.3-3.8-7.8-5.1-17-9.6-23-11.1l-5.2-1.3.3-3.9c.5-8.2 1.4-14.2 3.3-21.4 5.1-20.7 12.4-35.3 23.1-46.6 3.9-4.1 6.7-7.4 6.3-7.4s-4.2 1.8-8.6 4.1c-21.8 11.3-38.4 36.6-42.3 64.3l-1.2 8.1-6.2 2.2-6.2 2.2v-3.2c0-1.8.7-7.5 1.5-12.7 7.2-47.6 39.5-80.8 83.7-85.9 4-.5 7.9-.9 8.6-1 .7 0 5.6.4 10.9 1m123.6 499.7c-1 .8-4 2.5-6.8 4-4.7 2.5-6 2.7-25 3.4-11 .4-23.6 1.1-28 1.5-9.2 1-145.9-.2-173.7-1.5-18.4-.8-18.7-.9-25.3-4.2-3.6-1.8-6.8-3.6-7-3.9-.1-.3 60-.6 133.6-.6 111.7 0 133.6.2 132.2 1.3M582 835.7c-5.6 2.5-15.7 5.1-23.9 6.3-4.8.7-25.6 1.1-56.1 1-53.2 0-59.5-.6-75.3-6l-8.2-2.8H502c76.1 0 83.2.1 80 1.5" fill="#549801" /><path d="M457.9 381.1c-2.7 2.7-2.1 6.7 1.4 9.2l2.7 2.1 2.8-2.1c1.5-1.1 2.8-3.2 3-4.6.4-3-2.8-6.7-5.8-6.7-1.1 0-2.9.9-4.1 2.1m132.6-193c-12.5 1.5-28.7 5.5-39.1 9.6l-9.6 3.8 8.8.7c12 1 26.5 4.2 40.9 9 42.6 14.1 75 42.4 91.2 79.5 1.8 4 3 7.3 2.9 7.3-.2 0-2.6-3-5.3-6.8-13.8-18.7-37.8-39.3-57.2-49.1l-6.3-3.3 2.2 3.1c4.6 6.6 12.3 24.8 15.1 35.9 1.6 6.3 2.9 11.9 2.9 12.6 0 .6-2.4-3.3-5.3-8.6-16-29.9-39.9-51.7-68.6-62.5-9.6-3.6-33-8.6-30.6-6.5.6.4 3.5 2.7 6.5 5 10.1 7.5 19.4 20.5 32.9 46.1 4.5 8.5 10.1 18.1 12.3 21.5 20.1 29.8 42.4 44.3 86.3 56.1 27.1 7.3 34.7 9.8 47.1 15.9l10.2 5.1 1.7-8.9c5.3-29.2 4-54.3-4-78.3-8.7-25.9-24-47.8-44.4-63.1-24.7-18.6-59.6-27.9-90.6-24.1"/></svg>